<?xml version="1.0" encoding="UTF-8" standalone="no"?>
<!-- Created with Inkscape (http://www.inkscape.org/) -->

<svg
   xmlns:dc="http://purl.org/dc/elements/1.1/"
   xmlns:cc="http://creativecommons.org/ns#"
   xmlns:rdf="http://www.w3.org/1999/02/22-rdf-syntax-ns#"
   xmlns:svg="http://www.w3.org/2000/svg"
   xmlns="http://www.w3.org/2000/svg"
   xmlns:sodipodi="http://sodipodi.sourceforge.net/DTD/sodipodi-0.dtd"
   xmlns:inkscape="http://www.inkscape.org/namespaces/inkscape"
   width="394.78906"
   height="306.4516"
   id="svg2"
   version="1.1"
   inkscape:version="0.48.3.1 r9886"
   sodipodi:docname="dibujooriginal.svg"
   inkscape:export-filename="/var/www/cabin/img/logo_white.png"
   inkscape:export-xdpi="90"
   inkscape:export-ydpi="90">
  <defs
     id="defs4" />
  <sodipodi:namedview
     id="base"
     pagecolor="#ffffff"
     bordercolor="#666666"
     borderopacity="1.0"
     inkscape:pageopacity="0.0"
     inkscape:pageshadow="2"
     inkscape:zoom="1.24"
     inkscape:cx="155.53339"
     inkscape:cy="185.35531"
     inkscape:document-units="px"
     inkscape:current-layer="layer1"
     showgrid="false"
     inkscape:window-width="1366"
     inkscape:window-height="709"
     inkscape:window-x="0"
     inkscape:window-y="27"
     inkscape:window-maximized="1"
     fit-margin-top="0"
     fit-margin-left="0"
     fit-margin-right="0"
     fit-margin-bottom="0" />
  <metadata
     id="metadata7">
    <rdf:RDF>
      <cc:Work
         rdf:about="">
        <dc:format>image/svg+xml</dc:format>
        <dc:type
           rdf:resource="http://purl.org/dc/dcmitype/StillImage" />
        <dc:title></dc:title>
      </cc:Work>
    </rdf:RDF>
  </metadata>
  <g
     inkscape:label="Capa 1"
     inkscape:groupmode="layer"
     id="layer1"
     transform="translate(164.51613,-817.68481)">
    <g
       id="g3488"
       transform="matrix(0.83040154,0,0,0.83040154,146.40955,237.71246)">
      <g
         transform="matrix(0.43970733,0,0,0.43970733,-0.66206323,735.10888)"
         id="g3089">
        <path
           inkscape:connector-curvature="0"
           id="path3127"
           d="m -731.82101,727.55632 c -24.41269,-3.82097 -47.84852,-15.90203 -62.66747,-32.30484 -15.46365,-17.11642 -17.30654,-21.01497 -22.47585,-47.54676 -7.14377,-36.66584 2.28177,-87.36264 25.54606,-137.40375 23.90287,-51.41466 67.05636,-114.78942 119.08877,-174.89246 12.23562,-14.13347 12.28791,-13.02224 -2.24395,-47.68846 -5.38567,-12.84768 -13.78983,-38.7794 -18.67592,-57.62605 -7.55678,-29.14803 -8.70554,-39.43137 -7.69039,-68.84225 1.01119,-29.29601 2.44028,-36.81887 9.35892,-49.26632 28.12759,-50.604812 97.866,-40.25382 179.96158,26.71098 12.98813,10.59433 25.0616,19.26242 26.8299,19.26242 1.76833,0 13.36885,-7.85177 25.77897,-17.44838 101.10066,-78.180043 244.2011,-152.724681 338.68393,-176.429002 87.949012,-22.065089 163.548896,-14.231629 194.625606,20.166596 20.87713,23.1084509 26.031834,38.751645 25.773694,78.216187 -0.203499,31.096552 -1.443611,38.023159 -12.325254,68.837679 -16.157918,45.75593 -49.970088,107.43125 -77.7985655,141.90902 -7.947028,9.84589 -8.5604985,17.48259 -1.8517062,23.05042 6.6701337,5.53572 6.4758847,32.56307 -0.303607,42.2421 -4.5017144,6.42709 -5.180253,19.70979 -4.7991966,93.94617 0.2440052,47.55341 -0.5187004,88.96909 -1.695128,92.0348 -3.0075203,7.83744 -43.4483657,8.18165 -46.4362927,0.39521 -1.430872,-3.7288 -5.469832,0.32897 -14.42558,14.49312 -11.216961,17.74036 -35.143101,39.46525 -54.26445,49.27212 -3.66969,1.88207 -16.17188,5.14459 -27.78264,7.25005 -34.66286,6.28555 -71.17571,-3.01105 -94.79222,-24.13521 -9.48792,-8.48664 -9.32031,-11.84772 1.40815,-28.23406 10.0322,-15.3229 16.85397,-16.73899 31.25117,-6.48731 5.39129,3.83895 16.61688,9.03076 24.94579,11.53739 22.16114,6.66951 49.4499,-1.38849 67.35037,-19.88764 16.748039,-17.30816 22.402571,-31.0994 22.402571,-54.63921 0,-15.97829 -1.694041,-21.48609 -10.701981,-34.79474 -5.88609,-8.69633 -12.36991,-16.33491 -14.40849,-16.97459 -2.03858,-0.63969 -13.89394,8.16031 -26.34525,19.55551 -28.92446,26.47114 -93.24712,79.89796 -115.66922,96.0756 -11.17241,8.06093 -17.94265,15.58472 -19.12006,21.24818 -5.90974,28.42617 -10.40246,39.35872 -21.00187,51.10571 -19.05262,21.11544 -41.18708,26.57526 -74.11965,18.28274 -14.09856,-3.55006 -14.88698,-3.27326 -68.13975,23.92416 -67.41037,34.42801 -114.17359,53.06664 -163.54174,65.18359 -42.80458,10.50596 -98.63896,14.76739 -129.72925,9.90128 z m 68.16318,-13.50953 c 19.92215,-1.72733 45.11296,-5.4146 55.97959,-8.19393 22.38814,-5.72618 67.4756,-20.93366 72.44418,-24.43459 1.81111,-1.27614 9.22017,-4.16686 16.46459,-6.42386 13.57162,-4.22824 102.15657,-47.49407 109.4895,-53.47586 6.67113,-5.44194 5.02783,-7.60347 -13.17166,-17.32535 -9.5083,-5.07919 -19.84016,-11.43465 -22.95967,-14.12326 -3.55494,-3.06382 -13.28926,-5.03911 -26.08106,-5.29231 -17.95898,-0.3555 -21.45409,0.6409 -29.11272,8.29954 -11.67992,11.67991 -39.73765,17.28455 -76.15224,15.21173 -32.88687,-1.87203 -43.2438,-7.52442 -58.63709,-32.00172 -15.13705,-24.06988 -17.71063,-36.55583 -15.89583,-77.11989 1.36387,-30.48491 3.63526,-42.64065 13.56951,-72.61979 6.56229,-19.80338 11.93145,-37.01855 11.93145,-38.25596 0,-4.25103 -27.19585,-49.22227 -29.76663,-49.22227 -2.46292,0 -34.95995,38.41564 -52.92613,62.56543 -45.19043,60.74412 -78.66292,123.83677 -90.54106,170.66176 -13.6989,54.00269 -8.78365,90.45709 15.50413,114.98768 16.57713,16.74283 30.21922,23.37536 54.72284,26.60515 27.28607,3.59653 25.52349,3.59228 65.1383,0.15741 z m 346.96064,-103.08322 c 9.78978,-5.0625 23.49256,-27.06521 23.49256,-37.72228 0,-6.99511 -4.67851,-9.41794 -7.95355,-4.11884 -1.99438,3.22699 -42.53102,30.67164 -53.78865,36.4167 -4.07498,2.07957 -7.40906,5.10208 -7.40906,6.71666 0,7.63641 30.03654,6.78631 45.6587,-1.29224 z m -49.91977,-14.52693 c 8.68247,-5.14743 26.73273,-16.46433 40.11175,-25.1487 39.11535,-25.38994 45.57869,-34.63026 24.24506,-34.66201 -17.53208,-0.0263 -35.07553,-5.51876 -41.97423,-13.14173 -5.90153,-6.5211 -5.94239,-6.5211 -16.49633,0.002 -24.03648,14.85537 -65.03465,21.85301 -87.06582,14.8606 -6.55969,-2.08198 -6.95217,-1.62621 -3.75076,4.35568 1.96656,3.67453 3.57555,11.79065 3.57555,18.03586 0,10.3449 1.83066,12.51282 20.58073,24.37233 21.72999,13.74434 34.4586,20.0944 41.01655,20.46245 2.18419,0.1225 11.07506,-3.98864 19.7575,-9.13606 z m -159.51519,-32.25222 c 5.468,-2.82763 13.16382,-4.1609 17.59609,-3.04845 6.79385,1.70514 7.87764,0.80038 7.87764,-6.57625 0,-6.09233 -7.51999,-16.76954 -26.13529,-37.10805 -14.3744,-15.70507 -33.40838,-38.18645 -42.29773,-49.95862 -22.69471,-30.05466 -25.38012,-31.91858 -29.72813,-20.63405 -1.93034,5.00984 -5.09514,21.65455 -7.03289,36.98822 -6.09786,48.25329 3.74972,78.00351 28.40949,85.82705 11.99749,3.80632 38.90014,0.92795 51.31082,-5.48985 z m 46.39778,-33.69767 c 5.37108,-2.11274 4.7309,-3.34396 -5.31928,-10.23047 -13.65398,-9.35584 -29.95191,-32.47514 -36.90689,-52.35402 -16.16726,-46.20954 8.46191,-102.149 55.27353,-125.54106 16.82632,-8.4082 23.53913,-9.87776 45.12051,-9.87776 21.37825,0 28.29621,1.48441 44.12295,9.4676 14.44126,7.28429 18.2999,8.23351 16.7327,4.11614 -4.14825,-10.8982 -24.79837,-45.42223 -37.66923,-62.9775 -7.3031,-9.96107 -16.83543,-23.29739 -21.18297,-29.63625 -4.34758,-6.33887 -12.40077,-15.76507 -17.89606,-20.94711 l -9.99137,-9.4219 -12.60907,9.18813 c -37.45448,27.29278 -83.70144,88.04369 -113.34514,148.89239 l -16.74876,34.37967 10.82863,15.27225 c 21.4964,30.31756 62.19456,78.96472 75.81637,90.62448 14.92064,12.77151 14.60581,12.65175 23.77408,9.04541 z m 283.67081,-58.55093 c 40.4527,-33.71954 66.46964,-59.26227 63.44417,-62.28774 -4.37082,-4.37079 -27.97554,-7.82736 -40.93916,-5.99492 -19.69948,2.78452 -43.55584,19.6841 -52.9322,37.49655 -4.29011,8.14997 -9.05809,24.44991 -10.59552,36.22209 -1.53743,11.77218 -3.95687,24.36758 -5.37651,27.98979 -3.14526,8.02511 -4.49595,8.99816 46.39922,-33.42577 z m -201.19627,17.3106 c 6.04194,-2.52452 15.24726,-10.30403 20.45623,-17.28782 12.82753,-17.19824 13.48028,-17.52928 34.67613,-17.58681 19.46654,-0.0527 22.5795,2.32503 22.5795,17.24744 0,7.97018 8.8727,18.92424 15.3285,18.92424 6.12094,0 5.57702,-6.24338 -2.75518,-31.62498 -6.03622,-18.38762 -7.60717,-20.74117 -9.83121,-14.72893 -2.38617,6.45043 -4.65549,7.0589 -23.02723,6.17403 l -20.3802,-0.98159 -3.81326,-19.15813 c -9.76209,-49.04536 -66.40959,-67.2602 -98.54731,-31.68757 -12.70651,14.06457 -19.79339,35.02676 -16.66196,49.2841 3.04183,13.84935 18.92617,34.11028 31.66015,40.38345 13.65,6.72443 35.62732,7.17981 50.31584,1.04257 z m -42.91853,-18.19064 c -14.88583,-9.07696 -20.96505,-19.48899 -20.96505,-35.90745 0,-12.00265 1.87344,-16.28815 11.19591,-25.61063 9.76413,-9.76412 13.31363,-11.19592 27.75535,-11.19592 14.27855,0 18.17917,1.52762 28.31909,11.09081 9.755,9.20015 11.75966,13.3838 11.75966,24.54192 0,18.92854 -5.91859,29.75137 -20.27521,37.07558 -15.6033,7.9602 -24.74239,7.96158 -37.78975,0.007 z m 176.05408,-203.78881 c 26.83013,-1.53535 26.89925,-1.38261 26.89925,59.43704 0,42.14328 0.83462,51.99401 4.17068,49.22532 7.92467,-6.57687 54.66453,-20.39547 68.9855,-20.39547 16.4743,0 45.83994,7.05382 59.9742,14.40622 11.844192,6.16118 13.832028,5.05762 32.648844,-18.12524 13.372143,-16.47483 14.830971,-19.86271 13.112562,-30.45194 -3.418838,-21.06776 14.117692,-39.69322 39.78572,-42.25627 8.140058,-0.81281 13.1784197,-6.31316 33.574684,-36.65328 C 77.918293,148.90063 101.30199,62.570359 77.423005,12.094328 57.595527,-29.817525 1.6636123,-44.228219 -85.750831,-29.94693 -107.32879,-26.421643 -129.84197,-19.429356 -203.07478,6.4923018 -256.01399,25.230785 -366.39107,89.370993 -445.45819,147.34147 c -24.52457,17.98093 -28.29535,21.9783 -25.55785,27.0934 4.9727,9.29156 10.1245,9.51846 28.94606,1.27484 41.89855,-18.35105 79.72242,-16.77231 103.04823,4.30115 19.56375,17.67468 33.10202,49.42778 35.56173,83.40771 1.60062,22.11209 3.60525,30.07578 9.43681,37.48938 17.55098,22.31248 -0.0165,60.65445 -27.99444,61.09504 -9.69211,0.1528 -9.38722,2.97937 2.95308,27.37719 5.69919,11.26773 13.9215,30.8595 18.27184,43.53723 4.35034,12.67774 9.68961,28.23677 11.86504,34.57564 3.29216,9.59272 4.23143,-6.14311 5.60182,-93.84814 l 1.64645,-105.37335 17.55514,-1.00459 z m 217.888457,125.43599 0,-45.15383 -16.464587,16.21702 c -9.055522,8.91936 -16.464587,17.61988 -16.464587,19.3345 0,1.71462 5.861064,10.88039 13.024575,20.3684 7.163512,9.48802 13.992298,21.10671 15.175114,25.81934 1.182783,4.71262 2.730783,8.5684 3.440012,8.5684 0.709195,0 1.289473,-20.31921 1.289473,-45.15383 z M -611.55863,359.65001 c 2.21869,-4.98054 9.18577,-17.67069 15.4824,-28.20035 6.29662,-10.52963 12.93023,-21.64322 14.74133,-24.69688 20.23997,-34.12587 49.00413,-67.2772 85.61585,-98.67414 18.5792,-15.93288 19.42449,-17.27673 14.17348,-22.53341 -5.25204,-5.25773 -6.32876,-5.02943 -18.11104,3.84012 -12.0009,9.03413 -29.87892,24.44123 -76.90911,66.27955 -11.86579,10.55587 -31.71866,29.97735 -44.11748,43.15883 -21.52426,22.88298 -22.3616,24.37154 -18.52346,32.92918 5.92769,13.21661 20.02533,36.95262 21.94744,36.95262 0.91664,0 3.4819,-4.07499 5.70059,-9.05552 z m -1.31898,-86.08353 c 28.74641,-29.68593 75.09713,-71.90427 102.41102,-93.28059 6.39283,-5.00314 10.05639,-10.34471 8.99394,-13.11341 -3.07543,-8.01445 -54.36071,-44.6783 -80.71563,-57.70361 -22.90548,-11.320497 -27.55571,-12.429008 -52.14003,-12.429008 -22.35997,0 -28.23891,1.128772 -34.26031,6.578058 -26.03485,23.56122 -26.01167,87.22333 0.0584,160.30599 14.29337,40.06888 15.33345,42.21619 20.4481,42.21619 2.014,0 17.85604,-14.65812 35.20453,-32.57362 z m 254.5479,23.5181 c 13.30098,-15.18713 9.19916,-65.73333 -6.78594,-83.62217 -11.48985,-12.85825 -30.34071,-15.69008 -51.26095,-7.70058 -8.32179,3.17812 -15.13056,6.78706 -15.13056,8.01986 0,1.23279 11.48405,17.2251 25.52011,35.53847 14.03606,18.31336 28.04436,37.84879 31.12956,43.41201 6.43963,11.61201 9.47073,12.41021 16.52778,4.35241 z M 14.315133,525.34743 c -0.994297,-2.59107 -1.318254,-31.85687 -0.719898,-65.03512 1.189698,-65.96777 2.281234,-70.24484 24.082982,-94.36503 16.241558,-17.96872 32.912347,-25.02492 59.327867,-25.11149 19.325996,-0.0632 25.826776,1.45933 40.233196,9.42387 9.45054,5.22471 20.51616,14.36417 24.59025,20.30996 4.0741,5.94575 8.19637,10.32316 9.16057,9.72757 3.05662,-1.88816 3.80194,141.33191 0.75885,145.82493 -1.98467,2.93033 -9.09303,3.97708 -22.36164,3.29292 l -19.45205,-1.00303 -1.64646,-62.03569 -1.64646,-62.03566 -9.23914,-7.93883 c -5.08153,-4.36634 -12.93464,-7.9388 -17.451338,-7.9388 -10.800506,0 -26.583953,8.33352 -30.837974,16.28219 -1.940977,3.62679 -3.390519,30.07899 -3.390519,61.87277 0,38.80525 -1.190489,56.72797 -3.951501,59.48898 -5.854511,5.85451 -45.16009,5.22543 -47.456735,-0.75954 z"
           style="fill:#e6e7e7" />
        <path
           inkscape:connector-curvature="0"
           id="path3125"
           d="m -703.99607,728.56787 c 4.98054,-0.75451 13.13051,-0.75451 18.11104,0 4.98054,0.75447 0.90556,1.37179 -9.05552,1.37179 -9.96107,0 -14.03606,-0.61732 -9.05552,-1.37179 z M -817.58444,640.3712 c -0.86553,-4.52776 -0.29737,-8.2323 1.26258,-8.2323 1.55996,0 2.83628,3.70454 2.83628,8.2323 0,4.52776 -0.56816,8.23229 -1.26257,8.23229 -0.69442,0 -1.97075,-3.70453 -2.83629,-8.23229 z m -1.23267,-26.33929 c 1.90947,-20.44003 5.33153,-23.0332 5.33153,-4.04011 0,8.34491 -1.52143,16.1129 -3.38096,17.26213 -2.1993,1.35925 -2.88103,-3.2619 -1.95057,-13.22202 z m 423.53204,1.86705 c 0,-1.68755 3.70691,-2.67306 8.23757,-2.19002 12.4411,1.32645 14.07867,5.2583 2.19002,5.2583 -5.73518,0 -10.42759,-1.38072 -10.42759,-3.06828 z m -200.86796,-10.67949 c -24.11173,-6.85167 -41.93708,-27.01559 -51.07024,-57.77025 -16.05821,-54.07388 12.91095,-156.07255 68.89125,-242.56204 53.273,-82.30669 122.71732,-135.15575 183.4043,-139.57581 29.1112,-2.12028 42.44666,2.83104 59.89583,22.23873 19.09783,21.24139 29.10224,47.3933 31.14007,81.40121 1.24946,20.85197 3.03063,28.30039 7.79967,32.61631 12.88584,11.66151 4.90625,45.69572 -12.58198,53.66385 -13.16804,5.99976 -31.82822,7.379 -37.62359,2.78087 -9.29574,-7.37538 -19.326,-26.79051 -19.33877,-37.43326 -0.007,-5.64185 3.1582,-14.28856 7.03327,-19.21493 8.63686,-10.97996 11.98813,-46.06491 6.37993,-66.79249 -5.96472,-22.04533 -15.75852,-31.0701 -35.80834,-32.99663 -20.63463,-1.98273 -30.60266,1.67495 -62.8035,23.0452 -73.15575,48.55014 -145.17791,168.60528 -155.64052,259.44024 -6.81991,59.20951 5.4164,85.11848 41.61768,88.12057 12.4356,1.03124 22.95065,-0.27298 32.93051,-4.08424 8.06377,-3.07957 18.76857,-5.11851 23.78844,-4.53095 8.41156,0.98451 9.25612,0.0356 10.77351,-12.10342 1.5024,-12.01914 2.72695,-13.43859 13.9949,-16.22213 6.79165,-1.67774 12.30264,-3.90046 12.24663,-4.93937 -0.056,-1.03888 -6.35372,-6.59848 -13.9949,-12.3546 -32.94805,-24.81983 -47.26071,-70.81428 -34.80439,-111.84564 4.85426,-15.99008 10.10564,-24.3365 25.05171,-39.81674 22.02281,-22.80984 46.32553,-33.80051 74.74015,-33.80051 32.62645,0 77.01554,25.28881 90.68181,51.66218 4.51518,8.71342 10.03012,18.13574 12.25541,20.93848 5.13043,6.46169 0.59276,38.76346 -6.03506,42.96117 -7.45935,4.72432 -28.38709,3.37356 -33.95205,-2.1914 -2.84604,-2.846 -5.17459,-8.8323 -5.17459,-13.30286 0,-11.51704 -11.14636,-31.91959 -22.79177,-41.71856 -18.4621,-15.53483 -54.49939,-15.53483 -72.9615,0 -22.09221,18.58937 -28.29399,46.75063 -15.92329,72.30505 20.48787,42.32232 77.45768,43.38682 105.13251,1.96443 3.6694,-5.49223 9.05556,-7.71498 21.47825,-8.86368 20.55752,-1.9009 23.71263,-0.003 27.09676,16.28305 3.69587,17.78824 15.93489,25.08626 28.38732,16.92714 l 8.61174,-5.64265 0.0504,-102.82772 c 0.0296,-59.04379 1.37993,-104.93095 3.17282,-107.76714 3.58885,-5.67732 30.73366,-6.92281 35.88358,-1.64646 1.76774,1.81111 3.54848,26.26102 3.95723,54.33314 0.40878,28.07212 1.20669,51.92499 1.77314,53.00638 0.56648,1.08139 10.13109,-2.54477 21.25466,-8.05813 16.63177,-8.24346 25.29231,-10.26659 48.74996,-11.38813 26.16424,-1.25091 30.7736,-0.47533 55.68916,9.37039 25.432588,10.05002 28.113945,12.06558 42.070415,31.62383 8.198607,11.48932 16.859309,25.53384 19.24595,31.21004 2.386673,5.67623 5.209362,8.91277 6.272645,7.19236 1.063283,-1.72042 2.170724,-23.76449 2.460995,-48.98686 0.450767,-39.16757 -0.220955,-46.00939 -4.603993,-46.89068 -5.794217,-1.16506 -10.720981,-25.48859 -7.328058,-36.17875 1.148339,-3.61806 5.942135,-10.43259 10.652917,-15.14334 6.843374,-6.84337 11.739251,-8.56504 24.35636,-8.56504 13.6719296,0 16.7053321,1.28361 22.6013995,9.56385 8.9424115,12.5585 9.1768005,35.93294 0.4712494,47.00024 -4.30496261,5.47286 -5.3776963,9.57748 -3.34336487,12.79252 1.64751247,2.60371 3.01818927,41.30306 3.04591567,85.99852 0.058614,94.20157 0.5491269,92.57928 -27.5097897,90.94885 -14.657038,-0.85164 -17.033537,-1.96277 -17.946432,-8.39071 -1.074907,-7.56887 -7.180009,-10.56401 -7.180009,-3.5225 0,2.13763 -6.032625,13.14582 -13.405862,24.46269 -17.429148,26.75129 -45.258448,45.53765 -77.428248,52.26844 -12.45974,2.60693 -26.38506,3.98897 -30.94512,3.07124 -28.94343,-5.82508 -47.85403,-13.50011 -60.15129,-24.41297 l -13.49385,-11.97476 10.60806,-15.41832 c 10.27858,-14.93941 17.58211,-18.97742 21.84598,-12.07833 1.13533,1.83699 7.52049,6.08209 14.18924,9.43355 29.68773,14.91992 61.97455,10.99486 85.12998,-10.34908 19.511956,-17.98548 25.638857,-31.98743 25.219405,-57.63418 -0.537634,-32.87095 -14.712885,-52.158 -50.466325,-68.66519 -16.95352,-7.82737 -45.04659,-4.48387 -64.98128,7.73371 -17.94551,10.99844 -33.25363,37.05256 -33.60828,57.20057 -0.43789,24.8777 -15.05653,51.2369 -33.7876,60.92312 -5.60346,2.89763 -8.8297,6.23017 -7.16951,7.40557 1.72144,1.21881 0.64914,6.82197 -2.49537,13.03926 -3.03268,5.99614 -6.4665,9.36084 -7.63071,7.4771 -1.16421,-1.88371 -0.56641,-6.32178 1.32846,-9.86235 5.62355,-10.5077 4.04532,-13.4517 -7.2568,-13.53673 -17.88917,-0.13468 -39.92224,-6.51615 -47.69109,-13.81312 l -7.35285,-6.90627 -21.1946,10.75783 c -23.79413,12.07726 -54.4477,16.43313 -75.23566,10.69098 -11.35128,-3.13552 -16.85315,-0.52875 -9.05552,4.29047 1.81111,1.11933 3.29292,9.93911 3.29292,19.59954 0,12.97874 -1.35988,18.08622 -5.20871,19.56316 -8.46912,3.24991 -29.41266,2.28232 -33.23024,-1.53526 -2.51673,-2.51671 -4.14184,-1.11215 -5.64565,4.87951 -1.16141,4.62741 -6.16517,10.48294 -11.11947,13.01229 -21.41344,10.93232 -65.67788,14.93829 -89.6843,8.11655 z M 19.56322,526.7157 c -4.045152,-2.51101 -4.819876,-13.34188 -4.52819,-63.30719 0.29768,-51.01759 1.258092,-62.03691 6.250649,-71.72784 10.919577,-21.19562 21.947525,-32.64361 39.913089,-41.43336 35.827304,-17.52866 79.123602,-6.9495 101.665662,24.84131 l 9.87875,13.93187 0,68.04932 0,68.04929 -16.46458,1.96478 c -9.05553,1.0806 -18.31686,1.29254 -20.58074,0.47092 -3.05273,-1.10793 -4.12089,-14.80183 -4.13452,-53.005 -0.0198,-56.71134 -3.06511,-73.76138 -14.51231,-81.26185 -9.54466,-6.25391 -27.734731,-7.10928 -37.705521,-1.77307 -14.061811,7.52566 -17.152938,22.23868 -16.740829,79.6825 0.208441,29.05084 -0.530193,53.72888 -1.641421,54.84008 -3.376854,3.37688 -36.18666,3.91439 -41.400039,0.67824 z m -465.77391,-62.85669 c -10.39419,-9.12622 -11.63981,-11.97238 -11.63981,-26.59666 0,-13.71006 1.56733,-17.94409 9.62546,-26.00219 8.14849,-8.14849 12.22957,-9.62546 26.59663,-9.62546 14.36707,0 18.44815,1.47697 26.59663,9.62546 8.026,8.02596 9.60808,12.26668 9.52075,25.52011 -0.0576,8.74204 -1.90989,18.18537 -4.11615,20.98514 -15.07405,19.12895 -38.82402,21.68662 -56.58351,6.0936 z M -655.42554,322.60469 c 0,-3.62221 1.48181,-6.58584 3.29292,-6.58584 1.8111,0 3.29291,2.96363 3.29291,6.58584 0,3.62221 -1.48181,6.58583 -3.29291,6.58583 -1.81111,0 -3.29292,-2.96362 -3.29292,-6.58583 z M -489.13321,171.1305 c -1.11933,-1.81111 0.36248,-3.29292 3.29292,-3.29292 2.93043,0 4.41224,1.48181 3.29291,3.29292 -1.11933,1.8111 -2.60114,3.29292 -3.29291,3.29292 -0.69178,0 -2.17359,-1.48182 -3.29292,-3.29292 z M -45.129007,-47.040604 c 12.761372,-2.182131 24.930611,-2.185469 36.222091,-0.0099 15.6035549,3.006352 14.0205508,3.277038 -19.217861,3.286154 -34.726218,0.0095 -35.428465,-0.125773 -17.00423,-3.276219 z"
           style="fill:#dae6ea" />
        <path
           inkscape:connector-curvature="0"
           id="path3123"
           d="m -703.99607,728.56787 c 4.98054,-0.75451 13.13051,-0.75451 18.11104,0 4.98054,0.75447 0.90556,1.37179 -9.05552,1.37179 -9.96107,0 -14.03606,-0.61732 -9.05552,-1.37179 z M -817.58444,640.3712 c -0.86553,-4.52776 -0.29737,-8.2323 1.26258,-8.2323 1.55996,0 2.83628,3.70454 2.83628,8.2323 0,4.52776 -0.56816,8.23229 -1.26257,8.23229 -0.69442,0 -1.97075,-3.70453 -2.83629,-8.23229 z m -0.98172,-25.89415 c 0.79097,-8.80849 2.25767,-16.83498 3.25935,-17.83665 3.22576,-3.22574 1.83449,23.79768 -1.48854,28.91267 -2.23517,3.44051 -2.77252,0.0794 -1.77081,-11.07602 z m 216.64114,-11.28318 c -10.57954,-3.33379 -25.80613,-18.62478 -36.26813,-36.42151 -8.68238,-14.76946 -8.9928,-16.93735 -8.79337,-61.41077 0.19879,-44.33429 0.67861,-47.48884 12.52136,-82.32293 30.27672,-89.05553 92.17287,-180.139 148.96901,-219.21576 7.96069,-5.4771 14.47398,-11.00641 14.47398,-12.28735 0,-1.28093 4.8159,-3.99399 10.70199,-6.029 5.88608,-2.03502 19.59285,-7.03864 30.45948,-11.11915 24.82149,-9.32069 60.96438,-10.41933 76.26397,-2.31821 25.78061,13.6508 47.22043,56.30796 47.22043,93.9508 0,18.69695 1.35356,24.21068 8.2323,33.53428 9.65552,13.0873 10.70086,29.38053 2.74869,42.8425 -6.21472,10.52067 -15.56196,15.60507 -33.3153,18.12171 -14.02621,1.9883 -19.72042,-1.47783 -29.92323,-18.21451 -9.23166,-15.14363 -8.96138,-30.03437 0.75645,-41.67381 16.39471,-19.63672 13.74111,-67.08412 -4.94195,-88.36292 -19.25174,-21.92654 -44.47796,-18.58627 -89.91245,11.90558 -88.86979,59.642 -170.9712,221.30905 -155.88803,306.96132 6.81945,38.72536 33.31199,52.49387 74.38329,38.65795 12.03319,-4.05368 23.88159,-6.05771 28.68593,-4.85191 7.72931,1.93995 8.18509,1.29645 8.18509,-11.5558 0,-11.57968 1.26014,-14.08928 8.44667,-16.82157 4.64564,-1.76629 12.27705,-3.21142 16.95865,-3.21142 8.11385,0 7.90577,-0.43914 -4.4486,-9.3886 -29.14073,-21.10945 -44.39111,-47.72577 -46.50612,-81.16662 -1.75734,-27.78577 5.88192,-50.2458 24.78149,-72.85952 18.42115,-22.0413 44.99087,-34.16029 74.89313,-34.16029 28.18309,0 40.78186,3.79324 61.71523,18.5813 8.60697,6.08021 17.02399,11.05495 18.70453,11.05495 1.68054,0 8.47676,11.27123 15.10274,25.04718 10.90311,22.66854 11.78189,26.49929 9.25359,40.33824 l -2.79358,15.29105 -17.86421,0 -17.86417,0 -3.93909,-15.44128 c -10.35583,-40.59475 -38.34928,-59.55807 -75.40238,-51.07913 -18.76057,4.29304 -39.12479,24.88233 -44.55458,45.04697 -9.25314,34.36357 22.47761,72.69223 59.97127,72.44135 16.55148,-0.11064 36.3786,-10.74394 48.44747,-25.98211 10.72115,-13.53652 11.20883,-13.74931 29.31757,-12.78982 17.91218,0.94905 18.47521,1.27159 20.61817,11.81255 4.2883,21.09341 19.78642,29.48715 34.26248,18.55641 6.28321,-4.74437 6.66147,-9.84615 8.23229,-111.0312 l 1.64646,-106.05835 18.11105,0 18.11104,0 0.90285,55.15637 c 0.49658,30.33599 1.79655,55.15636 2.88882,55.15636 1.09229,0 11.34959,-4.60969 22.794,-10.24374 34.23238,-16.85256 71.05427,-16.65887 108.87992,0.5727 7.70045,3.50798 15.193484,6.42132 16.651192,6.47411 4.212234,0.15246 30.010958,37.22679 38.09428,54.74369 l 7.363984,15.95804 1.646459,-51.04022 c 1.509934,-46.80802 1.140238,-51.47237 -4.458545,-56.25204 -3.584307,-3.05988 -6.795462,-11.33716 -7.777146,-20.04692 -1.487872,-13.20012 -0.505232,-16.16414 8.915804,-26.89411 9.444285,-10.75645 12.305336,-12.05903 26.487207,-12.05903 13.7910344,0 16.8022427,1.26814 22.7093084,9.56385 10.0250896,14.07894 9.3732236,37.76891 -1.3117336,47.67137 -5.3247133,4.9348 -7.0062086,8.64255 -4.8825403,10.76622 2.0035755,2.00358 2.90349694,35.81311 2.35914477,88.63358 l -0.88003217,85.3944 -20.3729181,0.97496 -20.372917,0.97497 -1.16352,-12.50018 c -0.929228,-9.98333 -1.676753,-11.17415 -3.712534,-5.91434 -24.318063,62.83001 -76.936903,94.95571 -137.732853,84.09086 -23.95578,-4.28112 -52.78669,-20.16355 -54.67972,-30.12209 -1.46311,-7.69683 13.10354,-28.96894 19.94928,-29.1325 3.20826,-0.0767 11.7651,3.78616 19.01522,8.58404 26.30333,17.40672 65.72423,13.40668 89.08629,-9.03962 36.103218,-34.68792 34.379178,-84.58743 -3.96981,-114.90055 -18.03718,-14.25757 -41.24297,-20.87074 -59.03878,-16.82486 -14.78849,3.3622 -36.29819,14.43371 -43.1334,22.2017 -8.46622,9.62164 -18.58717,31.61428 -20.68946,44.95794 -1.05677,6.70741 -2.7354,17.41331 -3.73025,23.7909 -2.04955,13.13824 -17.08359,31.9486 -31.13869,38.96018 -7.14299,3.56343 -15.00151,4.09682 -32.33111,2.1945 -24.3561,-2.67362 -27.70269,-3.88683 -39.16385,-14.19807 l -7.30146,-6.56888 -10.80959,8.20565 c -20.18838,15.32514 -49.18074,20.4266 -83.23231,14.64535 -16.09611,-2.73276 -16.32197,-2.65778 -10.70198,3.55224 3.86566,4.27147 5.74114,11.7812 5.74114,22.98835 0,14.47734 -0.96466,16.903 -7.40907,18.63 -12.00275,3.21662 -27.20582,2.36554 -31.32499,-1.75364 -2.91023,-2.91025 -4.61477,-1.76276 -7.10295,4.78165 -5.58826,14.69826 -20.70915,19.86445 -61.18281,20.90376 -19.92215,0.51156 -39.56039,-0.12183 -43.64054,-1.40755 z m 313.38323,-47.61529 c 1.05531,-2.26388 2.83346,-6.70932 3.9514,-9.87875 1.11795,-3.16943 3.46511,-5.76261 5.21588,-5.76261 1.75082,0 2.31986,1.85227 1.26455,4.11615 -1.05531,2.26388 -2.83346,6.70932 -3.9514,9.87875 -1.11795,3.16943 -3.46511,5.76261 -5.21588,5.76261 -1.75082,0 -2.31986,-1.85227 -1.26455,-4.11615 z M 17.663634,522.19943 c -1.030485,-2.68541 -1.375188,-31.28153 -0.765998,-63.54688 0.99209,-52.54748 1.847162,-60.03768 8.200484,-71.83598 20.958201,-38.91971 66.146643,-54.74013 104.86111,-36.71171 18.17529,8.46382 36.37564,26.9525 40.25058,40.88825 1.37562,4.94731 2.50841,37.14957 2.51727,71.56056 l 0.0165,62.56543 -19.75751,0 -19.7575,0 -1.64646,-60.37478 -1.64646,-60.37479 -11.16908,-9.97062 c -9.61888,-8.58681 -13.00209,-9.72477 -24.376086,-8.1992 -8.088788,1.08492 -16.521653,5.08219 -21.760092,10.31451 -8.442316,8.4324 -8.574428,9.32066 -10.199549,68.57397 l -1.646458,60.03091 -20.623344,0.98145 c -15.841732,0.75391 -21.057779,-0.15049 -22.497014,-3.90112 z M -446.21069,463.85901 c -10.39419,-9.12622 -11.63981,-11.97238 -11.63981,-26.59666 0,-13.71006 1.56733,-17.94409 9.62546,-26.00219 8.14849,-8.14849 12.22957,-9.62546 26.59663,-9.62546 14.36707,0 18.44815,1.47697 26.59663,9.62546 8.026,8.02596 9.60808,12.26668 9.52075,25.52011 -0.0576,8.74204 -1.90989,18.18537 -4.11615,20.98514 -15.07405,19.12895 -38.82402,21.68662 -56.58351,6.0936 z M -653.08674,322.60469 c 0.94722,-3.62221 2.29031,-6.58584 2.98463,-6.58584 0.69432,0 1.2624,2.96363 1.2624,6.58584 0,3.62221 -1.34308,6.58583 -2.98463,6.58583 -1.64155,0 -2.20963,-2.96362 -1.2624,-6.58583 z M -45.129007,-47.16459 c 12.469389,-2.051756 25.188974,-2.015998 36.222091,0.101829 15.5011123,2.975471 13.8023291,3.254996 -19.217861,3.162169 -34.461632,-0.09688 -35.288055,-0.255514 -17.00423,-3.263997 z"
           style="fill:#cadae3" />
        <path
           inkscape:connector-curvature="0"
           id="path3121"
           d="m -703.99607,728.56787 c 4.98054,-0.75451 13.13051,-0.75451 18.11104,0 4.98054,0.75447 0.90556,1.37179 -9.05552,1.37179 -9.96107,0 -14.03606,-0.61732 -9.05552,-1.37179 z M -817.58444,640.3712 c -0.86553,-4.52776 -0.29737,-8.2323 1.26258,-8.2323 1.55996,0 2.83628,3.70454 2.83628,8.2323 0,4.52776 -0.56816,8.23229 -1.26257,8.23229 -0.69442,0 -1.97075,-3.70453 -2.83629,-8.23229 z m -0.98172,-25.89415 c 0.79097,-8.80849 2.25767,-16.83498 3.25935,-17.83665 3.22576,-3.22574 1.83449,23.79768 -1.48854,28.91267 -2.23517,3.44051 -2.77252,0.0794 -1.77081,-11.07602 z m 220.76667,-10.89979 c -12.36124,-3.48246 -29.95938,-20.32398 -39.5794,-37.87773 -8.41712,-15.35883 -9.76192,-21.60849 -10.85778,-50.45919 -0.88119,-23.19912 0.34062,-39.25368 4.13496,-54.33313 6.53483,-25.97068 21.42675,-72.23504 25.43877,-79.03001 1.60403,-2.71666 6.06865,-11.60753 9.92138,-19.7575 12.57093,-26.59222 47.97297,-80.3376 69.47417,-105.47176 11.57362,-13.52916 31.57298,-32.74844 44.44303,-42.70952 12.87004,-9.96107 23.49055,-20.08679 23.60113,-22.5016 0.11064,-2.41481 2.03561,-3.77904 4.27786,-3.03163 2.24221,0.74741 13.06195,-2.71514 24.04383,-7.69456 46.39236,-21.0353 81.85373,-18.57052 105.23956,7.31478 18.02283,19.94914 28.38778,45.81604 30.88444,77.07573 1.619,20.27096 3.8403,28.66076 9.48979,35.84294 13.12729,16.68863 6.99815,45.91087 -11.38638,54.28739 -13.16804,5.99976 -31.82822,7.379 -37.62359,2.78087 -9.35712,-7.42405 -19.32606,-26.8192 -19.33877,-37.62467 -0.007,-6.2902 3.18899,-14.25389 8.03053,-20.00774 16.24693,-19.30838 13.76957,-70.08109 -4.41234,-90.43019 -12.44878,-13.93261 -34.99321,-16.16601 -58.98797,-5.84374 -9.39769,4.04278 -17.08672,8.64985 -17.08672,10.23792 0,1.58808 -1.85701,2.88742 -4.12669,2.88742 -16.43034,0 -72.20703,57.03139 -103.08501,105.40394 -19.73822,30.92132 -47.55542,87.27795 -47.55542,96.34555 0,2.58086 -2.39961,9.50261 -5.33247,15.38165 -2.93286,5.87904 -7.50547,24.99983 -10.16137,42.49062 -5.5648,36.64779 -1.8632,70.0468 9.34206,84.29199 12.3238,15.66717 41.33344,19.00718 70.45417,8.11171 16.87999,-6.31562 18.93824,-6.45939 24.20739,-1.69085 5.3993,4.88629 5.80856,4.23802 6.55623,-10.38533 0.96366,-18.84794 2.44032,-20.54949 19.86129,-22.88611 19.56947,-2.62481 26.66815,4.60824 26.66815,27.17299 0,15.07066 -0.9235,17.46409 -7.40907,19.20215 -11.52886,3.08962 -28.20963,2.4229 -30.45948,-1.21742 -3.20305,-5.18262 -6.40079,-3.89727 -9.92114,3.98789 -6.36404,14.25467 -22.6902,20.1051 -58.84659,21.08744 -18.32199,0.49779 -36.27634,0.0702 -39.89855,-0.9503 z m 406.94325,-12.89114 c -19.19119,-5.15974 -35.09177,-13.76394 -44.3583,-24.00333 -5.55364,-6.13665 -5.42686,-6.94272 3.12392,-19.8638 4.90184,-7.40718 10.48814,-13.4676 12.41401,-13.4676 1.92586,0 9.13297,3.90257 16.01582,8.67242 28.97185,20.07748 71.86506,15.72266 95.46751,-9.69253 18.139791,-19.53303 23.244735,-33.56945 21.899249,-60.21393 -1.018862,-20.17603 -2.764305,-26.17184 -11.035521,-37.90816 -5.403878,-7.66775 -17.132588,-18.42426 -26.063768,-23.90335 -13.6011,-8.34399 -19.75158,-9.99087 -37.86855,-10.13978 -18.19057,-0.1495 -24.50991,1.42597 -39.74107,9.90793 -15.35461,8.55075 -19.73985,13.2643 -28.81303,30.97041 -6.6425,12.9627 -10.70198,25.72723 -10.70198,33.65118 0,7.02158 -2.15689,17.92865 -4.79307,24.23794 -5.04373,12.07131 -23.55687,31.12495 -30.24202,31.12495 -2.1621,0 -4.42502,1.3931 -5.02875,3.0958 -0.67136,1.89353 -9.77315,2.01211 -23.43681,0.30526 -19.70508,-2.46142 -26.45991,-5.24256 -43.55038,-17.93079 -2.65498,-1.97108 -8.42967,-0.27233 -16.79003,4.93937 -66.28471,41.32025 -150.22183,1.41645 -158.10199,-75.16182 -5.61737,-54.5887 44.15263,-109.52993 99.22071,-109.52993 24.30318,0 37.71089,4.14779 57.57103,17.8101 8.13871,5.59882 17.77049,10.99136 21.40396,11.98339 3.63344,0.99206 6.62249,4.29703 6.64231,7.34439 0.0198,3.04736 2.58797,8.52111 5.70702,12.1639 15.14709,17.69054 19.13034,49.65291 7.40103,59.3874 -6.12314,5.08173 -28.38001,2.73434 -31.43913,-3.31583 -1.3736,-2.71666 -4.20393,-11.32922 -6.28963,-19.139 -8.88666,-33.27588 -41.10658,-51.76107 -75.73891,-43.4529 -30.75845,7.37883 -51.29338,41.44037 -43.29301,71.81058 5.21572,19.79943 12.21261,29.23706 28.94606,39.04353 26.70958,15.65285 63.44164,8.31317 80.4822,-16.08172 10.04893,-14.38583 12.21283,-15.60668 27.76716,-15.66549 15.15239,-0.0573 21.23932,4.40658 21.23932,15.57596 0,9.43786 13.75422,23.88863 22.73713,23.88863 3.61454,0 8.08227,-2.59317 9.92828,-5.76261 1.84604,-3.16943 3.42417,-4.28079 3.50695,-2.46968 0.0827,1.8111 1.58699,1.07019 3.34265,-1.64646 1.88111,-2.91084 3.21276,-46.41397 3.2425,-105.92725 0.0263,-55.54335 0.94984,-103.33181 2.04918,-106.19659 2.31469,-6.032 21.19997,-7.12335 31.14688,-1.79992 5.90127,3.15826 6.36936,7.39318 6.36936,57.62604 0,29.8195 0.99469,54.21729 2.2104,54.21729 1.21572,0 4.5498,-2.05729 7.40907,-4.57179 8.67578,-7.62959 52.43197,-21.77155 67.36268,-21.77155 15.10926,0 41.79638,6.9579 56.89901,14.83475 5.14841,2.68521 11.602533,4.8913 14.342504,4.90247 2.73997,0.01 6.444502,2.94008 8.232293,6.50874 1.787791,3.56864 9.017062,14.62915 16.065024,24.57886 7.047996,9.94972 15.520047,25.92303 18.826795,35.49624 l 6.012274,17.40583 0.107349,-52.07992 c 0.05927,-28.64397 1.588207,-54.84663 3.397962,-58.22816 2.640393,-4.93365 1.952601,-6.57286 -3.481569,-8.29759 -15.690192,-4.97988 -17.246194,-32.72044 -2.760683,-49.21851 9.04897,-10.30621 12.041507,-11.63981 26.119124,-11.63981 13.7910347,0 16.802243,1.26814 22.7093087,9.56385 9.9702293,14.00195 9.3718733,37.77016 -1.1975023,47.56553 -5.69217,5.27532 -7.1349617,8.80039 -4.9897907,12.19121 3.76103856,5.94493 4.02792951,164.53021 0.2868131,170.42897 -1.8426836,2.90544 -8.5202258,3.97647 -20.5303188,3.29292 l -17.79924,-1.01306 -1.723513,-16.46459 -1.723545,-16.46459 -2.741025,11.52521 c -9.634055,40.50819 -51.115364,79.77198 -93.58475,88.58188 -21.85305,4.53319 -27.62968,4.34629 -49.78696,-1.61089 z m -97.68555,-35.10754 c 1.05531,-2.26388 2.83346,-6.70932 3.9514,-9.87875 1.11795,-3.16943 3.46511,-5.76261 5.21588,-5.76261 1.75082,0 2.31986,1.85227 1.26455,4.11615 -1.05531,2.26388 -2.83346,6.70932 -3.9514,9.87875 -1.11795,3.16943 -3.46511,5.76261 -5.21588,5.76261 -1.75082,0 -2.31986,-1.85227 -1.26455,-4.11615 z M 17.597644,522.02741 c -1.000026,-2.60598 -1.32395,-30.38997 -0.719897,-61.7422 1.092919,-56.7231 1.148536,-57.09332 11.283708,-75.11509 11.094069,-19.72678 35.442625,-37.58348 56.679538,-41.56755 28.271707,-5.3038 63.336207,12.00242 79.669897,39.32145 8.02896,13.42884 8.23229,15.35507 8.23229,77.98201 l 0,64.21307 -12.85778,1.05238 c -7.07178,0.5788 -16.24153,0.20317 -20.3772,-0.83489 -7.44552,-1.86873 -7.52956,-2.48892 -8.54621,-63.08666 l -1.02673,-61.19939 -9.23914,-7.94021 C 106.85415,381.2144 84.875569,381.97592 72.055912,394.79558 l -9.625461,9.62542 0,59.17353 c 0,66.67963 1.483855,63.17102 -26.715998,63.17102 -11.142311,0 -16.873831,-1.49896 -18.116809,-4.73814 z m -463.808334,-58.1684 c -10.39419,-9.12622 -11.63981,-11.97238 -11.63981,-26.59666 0,-13.71006 1.56733,-17.94409 9.62546,-26.00219 8.14849,-8.14849 12.22957,-9.62546 26.59663,-9.62546 14.36707,0 18.44815,1.47697 26.59663,9.62546 8.026,8.02596 9.60808,12.26668 9.52075,25.52011 -0.0576,8.74204 -1.90989,18.18537 -4.11615,20.98514 -15.07405,19.12895 -38.82402,21.68662 -56.58351,6.0936 z M -653.08674,322.60469 c 0.94722,-3.62221 2.29031,-6.58584 2.98463,-6.58584 0.69432,0 1.2624,2.96363 1.2624,6.58584 0,3.62221 -1.34308,6.58583 -2.98463,6.58583 -1.64155,0 -2.20963,-2.96362 -1.2624,-6.58583 z M -45.129007,-47.16459 c 12.469389,-2.051756 25.188974,-2.015998 36.222091,0.101829 15.5011123,2.975471 13.8023291,3.254996 -19.217861,3.162169 -34.461632,-0.09688 -35.288055,-0.255514 -17.00423,-3.263997 z"
           style="fill:#d1d6d8" />
        <path
           inkscape:connector-curvature="0"
           id="path3119"
           d="m -597.79949,603.37675 c -12.09313,-3.0387 -29.87098,-19.96215 -39.5794,-37.67722 -8.44952,-15.41794 -9.74591,-21.49742 -10.75995,-50.45919 -1.40579,-40.15054 7.10184,-76.90815 30.35152,-131.13522 49.23964,-114.84551 135.46785,-201.71035 214.41916,-216.00226 52.3432,-9.47526 92.15691,30.58766 96.27309,96.87578 1.26958,20.44549 3.37622,28.91046 9.40957,37.8097 9.42348,13.89967 9.82077,24.87756 1.36465,37.70535 -8.19943,12.43834 -18.58433,18.07061 -33.58798,18.21639 -9.69827,0.0942 -13.97264,-2.12166 -22.2272,-11.52311 -12.46017,-14.19135 -14.35853,-36.2807 -3.92911,-45.71919 14.96862,-13.54643 11.1982,-72.32233 -5.86442,-91.41871 -40.39702,-45.21212 -149.86987,37.53786 -209.58909,158.42734 -31.69759,64.16532 -45.47872,124.54013 -37.58544,164.66094 4.81134,24.45554 12.53479,35.09591 28.7422,39.59726 18.0499,5.01307 31.51896,4.18958 50.70334,-3.09988 15.69057,-5.96196 17.84077,-6.08601 24.93395,-1.43838 15.2782,10.01066 2.46357,28.26729 -24.17847,34.44635 -13.48051,3.12649 -57.50835,3.5956 -68.89642,0.73405 z m 406.94325,-12.69063 c -19.19119,-5.15974 -35.09177,-13.76394 -44.3583,-24.00333 -5.55364,-6.13665 -5.42686,-6.94272 3.12392,-19.8638 4.90184,-7.40718 10.09885,-13.4676 11.54896,-13.4676 1.4501,0 10.08574,4.63066 19.19033,10.2904 13.96539,8.68138 19.79211,10.2899 37.2641,10.28724 33.8043,-0.007 56.23424,-13.95246 72.326594,-44.97388 5.371275,-10.35425 6.440189,-17.55744 5.466605,-36.8378 -1.018862,-20.17603 -2.764305,-26.17184 -11.035521,-37.90816 -5.403878,-7.66775 -17.132588,-18.42426 -26.063768,-23.90335 -13.6011,-8.34399 -19.75158,-9.99087 -37.86855,-10.13978 -18.19057,-0.1495 -24.50991,1.42597 -39.74107,9.90793 -15.35461,8.55075 -19.73985,13.2643 -28.81303,30.97041 -6.84762,13.36299 -10.70198,25.66299 -10.70198,34.15219 0,17.25759 -10.39268,38.3672 -23.86427,48.47306 -9.14703,6.86178 -14.33937,8.03528 -35.55306,8.03528 -24.66751,0 -26.83804,-0.73709 -47.6337,-16.17609 -2.65498,-1.97108 -8.42967,-0.27233 -16.79003,4.93937 -66.28471,41.32025 -150.22183,1.41645 -158.10199,-75.16182 -5.61737,-54.5888 44.15263,-109.53003 99.22071,-109.53003 26.00832,0 37.94729,4.13761 63.10705,21.8707 23.18237,16.33939 37.22775,39.83978 39.798,66.5892 1.81173,18.85475 -3.22897,24.38122 -20.87663,22.88854 -13.2423,-1.12008 -15.27087,-3.54242 -21.03183,-25.11409 -8.88666,-33.27588 -41.10658,-51.76107 -75.73891,-43.4529 -30.75845,7.37883 -51.29338,41.44037 -43.29301,71.81058 5.21572,19.79943 12.21261,29.23706 28.94606,39.04353 26.70958,15.65285 63.44164,8.31317 80.4822,-16.08172 10.04893,-14.38583 12.21283,-15.60668 27.76716,-15.66549 15.15239,-0.0573 21.23932,4.40658 21.23932,15.57596 0,9.22105 13.67976,23.88863 22.27981,23.88863 3.36306,0 9.35765,-3.02135 13.32137,-6.71413 7.11685,-6.63035 7.20674,-7.99823 7.20674,-109.65414 0,-75.6739 1.04666,-103.98667 3.9515,-106.89152 4.85304,-4.85304 20.59348,-5.14566 29.19415,-0.54272 5.90127,3.15826 6.36936,7.39318 6.36936,57.62604 0,29.8195 0.99469,54.21729 2.2104,54.21729 1.21572,0 4.5498,-2.05729 7.40907,-4.57179 8.63149,-7.59064 52.402,-21.7728 67.13712,-21.75318 16.75723,0.0231 34.50444,4.67463 57.25458,15.00902 24.004675,10.90423 48.405917,42.16347 58.957676,75.52783 3.753333,11.86797 4.187438,8.01694 4.385903,-38.90825 0.121179,-28.64397 1.707311,-54.85846 3.524804,-58.25444 2.57223,-4.80628 1.876831,-7.17451 -3.138084,-10.68706 -8.201011,-5.74424 -14.242625,-21.46113 -11.87538,-30.89303 1.005394,-4.00577 6.387898,-11.84311 11.961127,-17.41637 15.9801,-15.98007 37.4211087,-13.14958 47.4610492,6.26549 7.4970838,14.4978 6.2790008,28.696 -3.2821166,38.25712 -6.5323908,6.53239 -7.5634032,9.54896 -4.9393761,14.45198 4.01446143,7.5011 4.4597956,164.37364 0.4844211,170.6418 -1.8426837,2.90544 -8.5202266,3.97647 -20.5303196,3.29292 l -17.799371,-1.01306 -1.723513,-16.46459 -1.723545,-16.46459 -2.741025,11.52521 c -9.634055,40.50819 -51.115364,79.77198 -93.58475,88.58188 -21.85305,4.53319 -27.62968,4.34629 -49.78696,-1.61089 z m -299.1002,-13.4547 c -5.39479,-3.76324 -7.39536,-8.41624 -7.35864,-17.1151 0.0277,-6.57075 1.13909,-13.57723 2.46969,-15.57 3.54718,-5.3124 15.82611,-11.19493 23.36775,-11.19493 9.25494,0 20.21298,15.31358 20.21298,28.24714 0,18.62681 -21.78291,27.42789 -38.69178,15.63289 z M 17.750831,518.80819 c -1.098451,-4.37659 -1.497125,-32.16058 -0.88596,-61.7422 1.097003,-53.09862 1.241134,-54.01589 11.296584,-71.89587 11.094069,-19.72678 35.442625,-37.58348 56.679538,-41.56755 28.271707,-5.3038 63.336207,12.00242 79.669897,39.32145 8.02896,13.42884 8.23229,15.35507 8.23229,77.98201 l 0,64.21307 -15.89718,1.01408 c -25.17218,1.60579 -25.26428,1.37157 -25.26428,-64.23602 l 0,-57.47616 -9.62546,-9.62542 c -7.88094,-7.88098 -12.40288,-9.62546 -24.950176,-9.62546 -12.5473,0 -17.069233,1.74448 -24.950172,9.62546 l -9.625461,9.62542 0,57.22079 c 0,40.11449 -1.181301,58.40206 -3.951501,61.17226 -2.173325,2.17333 -11.776888,3.9515 -21.341233,3.9515 -15.642576,0 -17.590369,-0.79948 -19.386886,-7.95736 z M -445.06624,461.29462 c -17.25996,-17.25995 -17.75284,-32.2995 -1.58834,-48.464 15.69899,-15.69898 32.91551,-15.73557 49.4886,-0.10504 9.06817,8.55239 11.73296,13.63962 11.64296,22.22719 -0.14851,14.16991 -5.98639,24.65496 -18.21638,32.71704 -15.23758,10.04468 -26.67069,8.28099 -41.32684,-6.37512 z"
           style="fill:#aec6d5" />
        <path
           inkscape:connector-curvature="0"
           id="path3117"
           d="m -596.96223,602.04945 c -17.41786,-4.92456 -40.16058,-31.05343 -46.74579,-53.70577 -25.56964,-87.95645 59.40375,-269.97156 160.37446,-343.52606 44.01781,-32.06581 95.72323,-44.56373 126.51981,-30.58158 26.69272,12.11891 50.43745,58.5374 50.43745,98.59996 0,14.05298 1.72151,21.43284 6.38171,27.35729 9.55759,12.1505 11.34967,23.58167 5.47727,34.93766 -13.29456,25.70882 -37.98505,31.15751 -56.64265,12.49991 -13.6989,-13.6989 -15.3695,-32.00386 -4.21497,-46.18451 4.80539,-6.10906 7.50186,-15.36429 8.65244,-29.69806 3.73726,-46.55831 -13.23773,-74.27445 -45.48998,-74.27445 -20.05861,0 -32.77562,5.08716 -62.39558,24.96 -90.39883,60.65104 -170.8619,222.19105 -155.13767,311.45894 5.12769,29.11031 15.99584,39.6591 42.86194,41.60242 12.92782,0.93512 25.07798,-0.4046 35.32047,-3.8946 20.43962,-6.96446 26.63602,-6.71067 30.9049,1.26579 5.15782,9.63748 -0.65456,17.97624 -17.19175,24.66422 -16.89483,6.83264 -61.84683,9.40026 -79.11206,4.51884 z m 408.70117,-12.17425 c -25.07445,-6.58527 -48.96397,-20.99215 -48.96397,-29.52834 0,-3.21215 4.07498,-10.61828 9.05552,-16.45804 l 9.05552,-10.61775 15.86163,10.45186 c 14.0542,9.2609 18.55687,10.46275 39.515,10.54734 34.37059,0.13863 57.1743,-13.56718 73.155555,-43.9693 8.227684,-15.65203 7.373699,-51.25778 -1.653802,-68.95313 -7.813663,-15.31608 -31.434323,-35.47785 -46.690213,-39.85319 -49.00934,-14.05568 -101.24729,22.4056 -101.63227,70.93777 -0.19362,24.421 -16.48695,49.55132 -37.21955,57.40671 -19.47514,7.37893 -48.16455,2.20411 -64.64049,-11.65949 l -9.90299,-8.33283 -11.09796,8.46481 c -33.78345,25.76793 -89.62623,23.46163 -122.00433,-5.03873 -21.4454,-18.87698 -36.66807,-50.94719 -36.54622,-76.99331 0.16988,-36.31597 24.50368,-73.52676 59.34911,-90.75559 22.45839,-11.10425 58.97421,-11.41009 80.75597,-0.6764 32.95706,16.2407 55.56271,45.50903 60.8925,78.83961 2.46919,15.44158 -3.9163,24.07699 -17.7454,23.99793 -13.10081,-0.0751 -17.19407,-4.0304 -20.74963,-20.05123 -4.21405,-18.98785 -16.70109,-37.58072 -30.04132,-44.73069 -7.03683,-3.77151 -18.26453,-5.78158 -32.70177,-5.85442 -24.4751,-0.12348 -32.51238,3.99039 -49.99425,25.58982 -20.75556,25.64419 -12.89349,65.36592 17.05734,86.17927 11.92662,8.28797 17.2541,9.8449 32.92918,9.62312 22.85623,-0.32336 34.385,-6.02037 52.00376,-25.69806 11.29421,-12.61401 15.49696,-15.12865 25.28489,-15.12865 13.55829,0 22.08837,6.99264 22.08837,18.10726 0,8.40135 13.82906,21.40775 22.76179,21.40775 2.97499,0 8.70243,-2.30675 12.72759,-5.12608 7.30277,-5.11506 7.31854,-5.35264 7.31854,-110.19689 0,-117.68622 -1.11959,-112.55466 23.87365,-109.42242 6.79165,0.85115 12.59508,1.75588 12.89655,2.01052 0.30163,0.25464 1.41283,26.16382 2.46969,57.57594 l 1.92158,57.11302 8.23229,-6.40763 c 23.37847,-18.19669 72.15112,-26.49899 100.92239,-17.17947 29.07662,9.41843 43.350302,19.27601 58.222862,40.20938 13.38324,18.8371 24.401144,43.49739 25.818185,57.78632 0.307887,3.10614 1.477268,-19.75573 2.598309,-50.80415 1.413617,-39.15282 3.362793,-58.04771 6.36083,-61.66011 3.702293,-4.46101 3.094585,-5.768 -4.234626,-9.10741 -9.900123,-4.51081 -16.331191,-22.515 -11.998568,-33.59079 11.22032,-28.68334 43.8883325,-33.08462 57.0677075,-7.68857 8.0478905,15.50793 5.4631146,32.93263 -5.9993662,40.44315 -7.3832806,4.83769 -7.6341351,5.81529 -3.1390394,12.23296 3.983541,5.68729 4.88553689,21.31472 4.88553689,84.64305 0,89.2969 -0.14422978,89.846 -23.16982279,88.20593 l -14.698727,-1.04695 -3.292918,-18.957 -3.292917,-18.95699 -5.641525,19.22678 c -14.214734,48.44507 -50.330431,78.17787 -106.317671,87.52771 -5.43331,0.90737 -19.70392,-0.93061 -31.7125,-4.0844 z m -300.42807,-13.95489 c -8.72878,-6.86606 -11.7771,-22.71573 -6.08925,-31.66094 2.47725,-3.89591 17.98264,-10.90798 24.12025,-10.90798 7.21129,0 19.39347,16.45378 19.39347,26.19367 0,20.51623 -20.66497,29.55828 -37.42447,16.37525 z M 19.408222,519.77933 c -2.509862,-4.68974 -3.321039,-24.44428 -2.467745,-60.09573 1.380819,-57.69188 4.77124,-70.04743 25.271527,-92.09529 26.11514,-28.08661 75.187936,-30.48915 104.107986,-5.09701 24.78582,21.76226 26.28436,27.04503 27.58648,97.25173 l 1.16935,63.04771 -17.38723,1.17264 c -11.42122,0.77028 -18.8832,-0.32336 -21.74705,-3.18718 -3.27833,-3.27833 -4.35982,-18.34708 -4.35982,-60.74724 l 0,-56.38742 -8.84837,-9.23571 c -7.28683,-7.60582 -11.63608,-9.23571 -24.644917,-9.23571 -12.645,0 -17.853276,1.83767 -26.105327,9.21084 l -10.308742,9.21089 0.498943,56.29136 c 0.573692,64.72282 -0.219275,66.88234 -24.559072,66.88234 -11.373308,0 -15.266656,-1.49399 -18.206013,-6.98622 z M -436.88545,467.76287 c -22.29693,-13.59603 -27.38462,-34.94322 -12.53426,-52.59188 15.73883,-18.70452 45.10497,-16.51374 57.8047,4.31234 11.49179,18.84517 4.79521,38.46727 -16.96896,49.72197 -12.22924,6.32398 -15.86903,6.13849 -28.30148,-1.44243 z"
           style="fill:#a4bdcf" />
        <path
           inkscape:connector-curvature="0"
           id="path3115"
           d="m -604.54857,598.04868 c -12.60264,-5.71255 -26.94257,-22.49484 -35.30709,-41.32051 -5.60724,-12.62001 -6.24325,-19.85036 -4.92419,-55.97959 1.35346,-37.0716 2.82817,-45.34354 13.85401,-77.70992 12.19814,-35.80767 34.24073,-83.8512 46.97907,-102.39451 3.61376,-5.26057 12.34795,-18.30526 19.4093,-28.98821 16.23566,-24.56251 66.82746,-76.61666 89.06532,-91.63974 35.71719,-24.12922 81.88053,-36.40992 109.20631,-29.05185 30.59025,8.2371 53.17324,45.22183 56.61332,92.71711 1.59957,22.08408 3.64128,30.35872 9.25023,37.4894 13.87119,17.6343 7.77432,42.20134 -13.15978,53.02677 -32.42368,16.76694 -64.06769,-26.10734 -40.20227,-54.46979 7.4465,-8.84965 8.62754,-13.38179 8.86157,-34.00506 0.33597,-29.60612 -4.45143,-44.17264 -19.22316,-58.48998 -10.16313,-9.85048 -13.55997,-11.15802 -28.75099,-11.06697 -19.35439,0.11601 -41.93119,10.15297 -69.77653,31.02058 -69.53777,52.11237 -135.977,165.61013 -148.06292,252.93501 -7.87782,56.91995 4.49319,88.9628 37.18213,96.30752 14.68842,3.30029 22.57704,2.28663 47.14781,-6.05825 12.71927,-4.31981 16.33868,-4.49035 20.58074,-0.96976 8.88476,7.3737 6.31985,19.13524 -5.55471,25.47147 -14.37715,7.67161 -78.45278,9.8556 -93.18817,3.17628 z m 409.06466,-10.37957 c -19.163,-5.26685 -41.78607,-20.26764 -41.62271,-27.59899 0.0652,-2.92312 3.75795,-9.76021 8.20622,-15.19352 l 8.0878,-9.87875 16.41223,9.20136 c 43.39907,24.33137 93.56828,8.78659 114.126058,-35.36158 18.680885,-40.11755 1.873703,-83.67273 -40.135168,-104.0089 -22.66475,-10.9718 -45.38496,-9.77851 -70.69798,3.71319 -17.67035,9.41821 -21.39023,13.18662 -30.154,30.54754 -6.28723,12.45493 -10.64775,26.98062 -11.75064,39.1434 -3.18956,35.17521 -22.95394,53.2335 -57.14009,52.20769 -22.13983,-0.66431 -34.40947,-4.50567 -44.46107,-13.91982 -6.94904,-6.50832 -6.9663,-6.50572 -23.05042,3.48081 -27.25436,16.92201 -64.9929,19.77996 -96.77265,7.32862 -14.14509,-5.54205 -34.39096,-25.46663 -44.21116,-43.50958 -19.71615,-36.22505 -14.4372,-80.68941 13.2336,-111.466 21.43824,-23.84448 42.46806,-33.28531 74.14431,-33.28531 22.2541,0 27.98766,1.33485 46.17589,10.75029 32.66943,16.91193 52.25281,47.27302 52.25281,81.01021 l 0,13.61285 -16.31539,0 c -16.27337,0 -16.32092,-0.0329 -18.47903,-12.34843 -2.46811,-14.08602 -14.07268,-35.86083 -23.80568,-44.66908 -10.97128,-9.92887 -37.07259,-15.22576 -54.91171,-11.1436 -20.80679,4.76126 -39.28677,22.87642 -45.83645,44.93163 -4.31234,14.52117 -4.34688,18.64976 -0.27101,32.3748 7.67727,25.8522 35.42926,46.93675 61.54917,46.76196 16.44358,-0.10998 36.6913,-10.86458 48.78296,-25.91104 10.28296,-12.79578 11.82928,-13.53165 28.43424,-13.53165 16.38707,0 17.55995,0.53299 17.55995,7.97963 0,4.38883 3.83624,12.5388 8.525,18.11104 11.00104,13.074 24.45221,13.64891 34.04392,1.45504 6.57563,-8.35949 6.82487,-12.45476 6.82487,-112.1396 l 0,-103.46323 15.64136,1.00365 15.64136,1.00365 0.90835,54.25361 c 0.4996,29.83949 2.14872,55.49398 3.66472,57.00998 1.51596,1.51596 8.36309,-1.04853 15.21578,-5.69892 36.04971,-24.46397 94.54591,-23.67644 131.387171,1.76889 19.740744,13.63442 39.179889,44.71156 45.029757,71.98857 1.964159,9.15849 4.928015,15.81324 6.586361,14.78832 1.658346,-1.02492 3.015193,-27.58427 3.015193,-59.02076 0,-42.67114 1.043229,-57.56573 4.116147,-58.76879 2.717381,-1.06388 1.074281,-4.23437 -4.835287,-9.32992 -18.76525,-16.18054 -18.399835,-33.93352 1.03503,-50.28687 12.592807,-10.59618 26.247712,-9.77147 38.2452923,2.30992 13.2823447,13.3751 10.4224458,41.71724 -5.0349036,49.89662 -7.6355507,4.04041 -8.0502277,4.97675 -3.0667927,6.92484 5.2810162,2.06443 5.7626054,9.3505 5.7626054,87.18466 l 0,84.93194 -14.7606664,1.17395 c -8.118359,0.64571 -16.26833,0.67143 -18.111046,0.0573 -1.842717,-0.61423 -3.350379,-8.31491 -3.350379,-17.11263 0,-8.79769 -1.375122,-16.84571 -3.055827,-17.88443 -3.140752,-1.94107 -4.771438,1.97147 -8.450021,20.27407 -3.842901,19.12032 -25.552875,48.10636 -46.3896,61.93697 -30.971564,20.55775 -63.206724,25.96037 -97.938474,16.41453 z m -293.79897,-13.00659 c -4.44545,-4.44544 -8.08263,-11.52479 -8.08263,-15.73188 0,-17.02438 19.01153,-29.73481 33.15438,-22.16581 15.17024,8.11885 15.88632,35.49751 1.10458,42.23252 -12.08801,5.50766 -17.17649,4.66501 -26.17633,-4.33483 z M 19.622525,465.74082 c 0,-62.13682 1.767967,-70.96174 18.650788,-93.09624 4.71256,-6.17846 16.150739,-14.76419 25.418227,-19.07936 37.96125,-17.67572 78.88704,-4.88758 100.15929,31.29694 8.66755,14.74368 8.92097,16.68702 10.02403,76.86828 l 1.13168,61.7422 -20.06595,0 -20.06596,0 0,-54.65871 c 0,-62.05835 -2.84801,-72.97127 -21.33283,-81.74291 -13.638673,-6.47197 -19.358471,-6.50723 -32.647335,-0.2012 -19.546824,9.27552 -21.756931,17.43343 -21.756931,80.30806 l 0,56.29476 -19.757504,0 -19.757505,0 0,-57.73182 z m -453.055415,3.63041 c -12.76127,-5.52226 -24.41761,-20.07053 -24.41761,-30.47559 0,-21.10309 21.10168,-39.6646 40.73826,-35.83428 16.0783,3.13624 25.50658,12.31561 28.29137,27.54433 2.8621,15.65163 -0.82155,25.2005 -13.05003,33.82886 -12.16917,8.58651 -20.21835,9.84549 -31.56199,4.93668 z"
           style="fill:#93b3cb" />
        <path
           inkscape:connector-curvature="0"
           id="path3113"
           d="m -598.88628,600.34276 c -10.23327,-2.21419 -30.53944,-22.9052 -38.38335,-39.11077 -10.03097,-20.72407 -10.91221,-72.09964 -1.83725,-107.10941 30.15585,-116.33646 110.54269,-229.27278 190.04966,-267.00275 66.11088,-31.37286 103.60144,-22.0951 128.33085,31.75797 6.52218,14.20332 9.58302,27.1872 10.88813,46.18665 1.41566,20.60862 3.44719,28.50237 9.22455,35.84294 14.08726,17.89895 8.13736,42.3864 -12.94838,53.29024 -32.8594,16.99227 -64.02413,-26.15838 -39.7383,-55.02162 8.29377,-9.85698 9.03968,-13.00455 8.86743,-37.41709 -0.15411,-21.85632 -1.63941,-29.30092 -8.24997,-41.35378 -24.08542,-43.91448 -79.04596,-30.01692 -143.71818,36.34121 -31.7318,32.55898 -59.49329,73.27521 -81.20916,119.10488 -21.87929,46.1746 -30.23834,72.11254 -34.80398,107.99599 -9.75091,76.63695 20.90054,109.64235 82.539,88.87788 21.89806,-7.37693 30.44511,-5.00649 28.55248,7.9187 -1.90049,12.97891 -20.1767,19.60817 -56.57819,20.52242 -18.32199,0.46015 -36.76539,0.0896 -40.98534,-0.82346 z m 409.40855,-12.15416 c -19.83446,-5.13497 -34.1547,-12.34633 -42.22442,-21.26325 -5.80591,-6.4155 -5.75595,-6.97154 1.65423,-18.40741 4.20255,-6.48566 8.78415,-11.81044 10.1813,-11.83287 1.39716,-0.0231 8.1154,3.64869 14.92943,8.15797 32.24257,21.33715 80.22225,13.81392 103.7434,-16.26697 13.572614,-17.35779 18.739729,-32.15564 18.704988,-53.56819 -0.07475,-46.05122 -46.481208,-85.23667 -92.272318,-77.91437 -7.22875,1.15591 -20.90624,6.73441 -30.39445,12.39661 -21.14732,12.61991 -33.8723,34.20952 -38.26104,64.91486 -5.8629,41.01921 -18.06178,53.26606 -54.72739,54.94252 -23.44162,1.07184 -24.96526,0.55647 -48.2852,-16.33254 -4.48101,-3.24527 -7.77524,-2.44904 -18.11105,4.37747 -17.87679,11.80712 -34.32804,16.50581 -57.40437,16.39547 -39.88955,-0.19066 -68.85762,-18.05042 -87.71829,-54.0808 -7.59223,-14.50378 -8.98196,-21.22265 -8.9969,-43.49677 -0.0132,-19.55222 1.58133,-29.31447 6.18499,-37.86855 20.47552,-38.04567 53.10026,-59.27251 91.09938,-59.27251 29.05854,0 47.86792,8.17635 70.21277,30.5212 18.96098,18.96101 29.59094,42.87905 27.71747,62.36601 -0.98155,10.20962 -1.85737,10.89863 -15.06717,11.85371 -15.05463,1.0885 -14.58911,1.57098 -20.39103,-21.13457 -1.91002,-7.47473 -9.39529,-20.27927 -16.71814,-28.59843 -10.93199,-12.4194 -16.27999,-15.69078 -30.46525,-18.63564 -35.23945,-7.31567 -68.3394,12.71047 -77.99219,47.18688 -10.50779,37.53017 21.81469,77.79379 62.45057,77.79379 19.98261,0 42.01249,-11.50437 52.41515,-27.37208 7.36866,-11.23978 9.15204,-12.14293 23.97701,-12.14293 10.03438,0 16.42471,1.53733 17.10997,4.11615 4.97682,18.72981 8.23578,24.26603 17.45345,29.64946 9.73199,5.68377 11.20949,5.74936 20.56266,0.91266 5.54247,-2.86612 10.3961,-5.54353 10.78585,-5.94981 0.38975,-0.40628 1.50111,-48.89758 2.46969,-107.75847 l 1.76105,-107.01981 14.81813,0 14.81813,0 0.90097,56.80282 c 0.56645,35.71113 2.14435,56.80282 4.24951,56.80282 1.84166,0 7.36346,-2.8839 12.27066,-6.40871 17.5855,-12.63143 49.73007,-20.82391 73.93831,-18.84421 62.006098,5.07073 106.393307,53.55258 106.027333,115.80815 -0.416061,70.77394 -73.067503,126.86289 -141.407193,109.17034 z m -299.80515,-13.52608 c -4.44545,-4.44544 -8.08263,-11.52479 -8.08263,-15.73188 0,-17.02438 19.01153,-29.73481 33.15438,-22.16581 15.17024,8.11885 15.88632,35.49751 1.10458,42.23252 -12.08801,5.50766 -17.17649,4.66501 -26.17633,-4.33483 z M -39.649988,439.83896 c 0,-74.70005 0.601748,-84.31462 5.446782,-87.026 4.743019,-2.65436 4.259487,-3.82611 -3.74217,-9.06903 -11.886247,-7.78814 -19.151114,-24.71374 -15.138134,-35.26862 1.643297,-4.32219 7.830524,-11.9334 13.749412,-16.91381 12.612993,-10.61314 26.213104,-9.76995 38.37002805,2.3789 13.31510895,13.30625 9.65275925,45.17748 -5.75325355,50.06713 -7.8260465,2.48391 -8.5500605,6.7764 -1.5932452,9.446 4.3165537,1.6564 4.8764156,13.23736 4.1161468,85.14489 l -0.8799334,83.22776 -17.2878167,0.99532 -17.287816,0.99531 0,-83.97785 z m 60.555072,78.93343 c -1.06516,-2.77583 -1.393497,-30.63783 -0.729579,-61.91553 1.186438,-55.89615 1.367417,-57.12201 10.584325,-71.68674 14.965157,-23.64822 32.656916,-35.36893 58.01396,-38.43398 21.79101,-2.634 41.19417,3.88166 58.17732,19.53619 24.68611,22.75485 25.51349,25.70016 26.86471,95.63171 l 1.19632,61.91584 -19.24553,-0.99687 -19.24552,-0.99683 -1.64646,-59.60203 c -1.76536,-63.9069 -2.44525,-66.45506 -20.17738,-75.62471 -11.63842,-6.01847 -23.776214,-6.00177 -35.47674,0.0487 -18.09794,9.3588 -19.843318,15.907 -20.827439,78.13902 l -0.901996,57.03899 -17.324631,0.9966 c -13.178618,0.7581 -17.788109,-0.21108 -19.26136,-4.05039 z M -433.43289,469.37123 c -12.76127,-5.52226 -24.41761,-20.07053 -24.41761,-30.47559 0,-21.10309 21.10168,-39.6646 40.73826,-35.83428 16.0783,3.13624 25.50658,12.31561 28.29137,27.54433 2.8621,15.65163 -0.82155,25.2005 -13.05003,33.82886 -12.16917,8.58651 -20.21835,9.84549 -31.56199,4.93668 z"
           style="fill:#9fa1a3" />
        <path
           inkscape:connector-curvature="0"
           id="path3091"
           d="m -485.60508,570.98472 c -6.14145,-6.14145 -6.76424,-18.26192 -1.22309,-23.80308 2.17333,-2.17332 7.73012,-3.85759 12.34844,-3.74276 8.29779,0.20613 8.30945,0.244 0.98788,3.18678 -4.07499,1.63797 -7.40907,5.06711 -7.40907,7.62037 0,6.59427 8.88156,13.12182 14.77621,10.85982 2.94344,-1.12951 4.9813,-0.0771 4.9813,2.57222 0,8.96267 -16.56628,11.20205 -24.46167,3.30665 z m 57.39084,-105.80893 c -10.47316,-3.8109 -23.05042,-18.81112 -23.05042,-27.49099 0,-12.00966 11.71132,-26.17135 21.64296,-26.17135 l 7.99329,0 -6.87119,6.8712 c -5.09165,5.09164 -6.30232,9.13775 -4.67463,15.62292 3.40695,13.57439 7.9544,17.01243 22.65099,17.12495 l 13.59171,0.10405 -9.23913,8.12824 c -9.28623,8.16966 -12.9252,9.12892 -22.04358,5.81098 z m 82.06964,-122.56031 c -12.53682,-12.53682 -12.7262,-26.35532 -0.56993,-41.59059 6.98269,-8.75133 11.50525,-11.34921 19.7575,-11.34927 5.88609,-7e-5 10.70198,1.48171 10.70198,3.29281 0,1.81111 -2.11688,3.29292 -4.70416,3.29292 -14.20367,0 -21.2679,29.37154 -8.68398,36.10625 3.50313,1.87482 10.17129,3.40876 14.81812,3.40876 10.39005,0 10.8422,4.53596 1.13023,11.3385 -10.99887,7.70391 -21.73513,6.21525 -32.44976,-4.49938 z m 309.370218,-7.52813 c -4.757278,-4.14881 -9.562665,-10.23034 -10.678668,-13.5145 -2.463629,-7.25001 5.53849,-23.73788 12.889961,-26.55892 9.695073,-3.72034 12.474658,-2.12973 6.948681,3.97639 -7.325621,8.09472 -6.861188,15.61709 1.479113,23.95739 5.11637,5.11637 9.42321,6.42995 16.4645868,5.0217 10.1280919,-2.02564 12.4309278,1.30482 5.1057343,7.3842 -9.3103291,7.7269 -23.1753881,7.61227 -32.2094081,-0.26639 z"
           style="fill:#2b2626" />
        <path
           style="fill:#ffffff;fill-opacity:1;stroke:none"
           d="m 89.323713,248.04335 c -3.389708,-2.15461 -8.850193,-8.27698 -10.812133,-12.12269 -2.461741,-4.82541 -3.563772,-13.7181 -3.066381,-24.74372 0.351987,-7.80244 0.982911,-11.5524 3.256421,-19.35484 10.232097,-35.11546 34.32269,-71.14588 58.20607,-87.0543 15.25882,-10.163699 32.46846,-14.426944 41.63813,-10.314772 5.21152,2.337127 10.14797,7.783552 13.69609,15.111012 2.63392,5.43948 3.33049,8.03305 4.44011,16.53225 1.03256,7.9089 1.79955,10.94935 3.56012,14.11291 3.52498,6.33399 3.47702,11.20357 -0.15104,15.33571 -6.70165,7.63276 -15.37686,6.74464 -19.88562,-2.03577 -2.39549,-4.66501 -1.89794,-8.31536 1.99256,-14.61846 l 2.89468,-4.68976 -0.40066,-9.09264 c -0.44063,-9.99963 -1.46296,-13.30055 -5.56698,-17.97477 -4.70706,-5.36105 -10.27914,-6.84797 -18.02717,-4.8106 -20.21202,5.31482 -45.90742,32.31845 -61.374431,64.49919 -8.55903,17.80796 -11.723646,27.84767 -13.27613,42.11836 -1.945557,17.88387 2.41827,29.1103 12.476547,32.09729 5.433064,1.61344 7.368454,1.51393 16.735524,-0.8605 4.44379,-1.12644 8.77367,-1.82779 9.62196,-1.55856 2.1683,0.68819 2.03345,4.69917 -0.22886,6.80683 -2.88225,2.68523 -6.78342,3.41037 -20.40623,3.79312 -11.680668,0.32818 -13.132452,0.21682 -15.322577,-1.17529 z M 196.03191,157.52331 c 3.69433,-2.25235 3.15271,-4.19725 -1.38458,-4.97183 -1.94336,-0.33175 -4.20837,-1.21404 -5.03334,-1.96063 -3.09629,-2.80211 -1.0302,-9.94746 3.31425,-11.46195 4.03404,-1.40627 2.64058,-3.35519 -2.39893,-3.35519 -4.34966,0 -10.47979,7.35531 -10.47979,12.5743 0,2.90192 2.8971,7.40987 5.96389,9.27996 3.23542,1.97291 6.66971,1.93703 10.0185,-0.10466 z"
           id="path3727"
           inkscape:connector-curvature="0"
           transform="matrix(2.7387232,0,0,2.7387232,-850.0337,-83.430263)" />
        <path
           style="fill:#ffffff;fill-opacity:1;stroke:none"
           d="m 242.44833,245.1062 c -6.41786,-1.46249 -13.08593,-4.64889 -15.92085,-7.60791 -2.16417,-2.25891 -2.20501,-2.44822 -1.00541,-4.66053 0.68771,-1.26829 1.93455,-3.17024 2.77077,-4.22655 l 1.52039,-1.92058 5.56169,2.87511 c 9.38633,4.85225 15.55844,5.7131 23.7621,3.31422 11.23626,-3.28567 18.96533,-12.01595 20.81697,-23.51359 1.51555,-9.41072 -1.09155,-17.45505 -8.0372,-24.79904 -5.64087,-5.96439 -11.34414,-8.62448 -19.54108,-9.11425 -5.48161,-0.32752 -7.02797,-0.0921 -11.86809,1.80686 -10.82389,4.24661 -15.95521,11.27537 -19.21472,26.31987 -2.03702,9.40198 -3.36372,12.63805 -6.29829,15.36275 -3.19877,2.97 -7.67656,4.22863 -15.24014,4.28375 -6.14489,0.0448 -6.7762,-0.1199 -11.41188,-2.97679 -2.69893,-1.66331 -5.47608,-3.02419 -6.17143,-3.02419 -0.69536,0 -4.08824,1.44149 -7.53974,3.2033 -7.77698,3.96978 -15.23331,5.23554 -23.81577,4.04291 -11.79109,-1.63851 -20.94412,-8.51278 -26.57272,-19.9571 -2.56464,-5.21455 -2.65898,-5.75135 -2.60127,-14.80207 0.0549,-8.60671 0.25045,-9.78082 2.34105,-14.05386 2.99076,-6.11287 11.53136,-14.6658 17.49675,-17.52198 9.07778,-4.34638 21.74103,-4.34789 30.3698,-0.004 9.76727,4.91745 19.0499,17.40313 20.03505,26.94833 0.59607,5.77539 -0.75228,7.32887 -6.06062,6.98268 l -3.70767,-0.24181 -2.09591,-5.68941 c -3.45524,-9.37931 -8.64647,-15.69585 -14.89352,-18.12201 -4.22064,-1.63916 -13.20243,-1.26511 -17.73836,0.73872 -15.15047,6.69301 -19.17817,24.77793 -8.21971,36.90763 4.61445,5.10765 9.46688,7.13281 17.09068,7.13281 9.09033,0 13.24194,-2.11803 20.32742,-10.37046 2.55848,-2.97985 2.64148,-3.0088 7.94683,-2.77203 l 5.36135,0.23927 1.48503,3.92019 c 1.81494,4.79113 3.56098,6.83652 7.12169,8.34267 2.52399,1.06764 3.00249,1.01111 6.45161,-0.7621 l 3.72542,-1.91525 0.49723,-18.90566 c 0.27347,-10.39811 0.54565,-28.06897 0.60484,-39.26856 l 0.10761,-20.36291 5.12155,0 5.12155,0 0.57024,18.75 c 0.31363,10.3125 0.77004,19.56654 1.01426,20.56452 0.58565,2.39327 1.81109,2.29002 6.64441,-0.55981 9.08102,-5.35436 20.93939,-7.42641 30.72154,-5.36807 19.84763,4.1763 33.06451,20.32688 33.06451,40.40369 0,7.45828 -1.51334,13.46033 -4.89758,19.42417 -9.04245,15.93496 -27.97444,24.79096 -44.80038,20.9567 z"
           id="path3729"
           inkscape:connector-curvature="0"
           transform="matrix(2.7387232,0,0,2.7387232,-850.0337,-83.430263)" />
        <path
           style="fill:#ffffff;fill-opacity:1;stroke:none"
           d="m 296.21367,194.03984 c 0.0354,-27.42065 0.48112,-33.66985 2.49552,-34.98737 0.85407,-0.5586 0.5115,-1.20946 -1.54005,-2.926 -6.1435,-5.14029 -7.54394,-11.09767 -3.77148,-16.04361 2.5751,-3.37613 5.8702,-5.1156 9.69056,-5.1156 2.36022,0 3.58982,0.63231 6.08843,3.13093 2.90627,2.90627 3.13093,3.46155 3.13093,7.73848 0,5.32728 -1.44103,8.2977 -5.02264,10.35327 l -2.46387,1.41406 1.72713,1.83845 c 1.70018,1.80976 1.72713,2.29837 1.72713,31.32276 l 0,29.48431 -2.52017,0.50403 c -1.38608,0.27722 -4.10786,0.50403 -6.04838,0.50403 l -3.52823,0 0.0351,-27.21774 z m 12.39336,-40.79795 c 2.98402,-2.3877 2.19011,-4.11703 -1.60718,-3.50082 -1.9466,0.31589 -3.24837,-0.009 -4.74129,-1.18333 -3.52863,-2.77563 -3.98605,-4.43802 -2.10052,-7.63377 2.05199,-3.47785 2.05198,-3.53735 -2.5e-4,-3.53735 -4.02082,0 -7.20505,4.0395 -7.20505,9.1403 0,2.20723 0.65473,3.36029 3.22813,5.68521 4.02718,3.63831 8.68386,4.02421 12.42616,1.02976 z"
           id="path3735"
           inkscape:connector-curvature="0"
           transform="matrix(2.7387232,0,0,2.7387232,-850.0337,-83.430263)" />
        <path
           style="fill:#ffffff;fill-opacity:1;stroke:none"
           d="m 318.96081,220.35732 c -1.23181,-1.26499 -1.38228,-27.12443 -0.22202,-38.15523 0.66678,-6.33912 1.11157,-7.7149 3.71759,-11.49873 6.07968,-8.82741 11.99293,-12.35766 21.66713,-12.9354 5.30309,-0.3167 7.30199,-0.0769 10.92601,1.31081 5.31653,2.03579 13.13832,8.70377 15.39212,13.12158 2.09223,4.10111 3.09371,15.12551 3.12911,34.44555 l 0.0272,14.82379 -6.06259,-0.38907 c -3.33443,-0.21399 -6.24708,-0.57356 -6.47257,-0.79905 -0.22548,-0.22548 -0.7504,-9.26143 -1.16648,-20.07988 -0.41608,-10.81845 -1.14777,-21.02448 -1.62598,-22.68005 -0.66108,-2.28868 -1.73116,-3.51513 -4.46471,-5.1171 -5.42279,-3.17796 -9.14074,-3.39222 -14.38033,-0.82873 -6.74694,3.30097 -7.00141,4.20556 -7.94202,28.23318 -0.43576,11.13141 -0.95055,20.40406 -1.14396,20.60589 -0.92008,0.96016 -10.43431,0.91202 -11.37846,-0.0576 z m 1.17398,-35.59167 c -0.19222,-0.99799 -0.34949,-0.18145 -0.34949,1.81451 0,1.99597 0.15727,2.8125 0.34949,1.81452 0.19222,-0.99798 0.19222,-2.63105 0,-3.62903 l 0,0 z"
           id="path3737"
           inkscape:connector-curvature="0"
           transform="matrix(2.7387232,0,0,2.7387232,-850.0337,-83.430263)" />
        <path
           style="fill:#ffffff;fill-opacity:1;stroke:none"
           d="m 86.996567,245.36382 c -5.144152,-4.52807 -8.315622,-9.37982 -9.762518,-14.93483 -1.423592,-5.46554 -1.618728,-20.69741 -0.36545,-28.52624 1.351876,-8.44476 7.644885,-26.13675 13.625532,-38.30646 20.531399,-41.77825 52.114499,-69.739249 79.071519,-70.003235 13.98689,-0.136971 22.86609,10.881575 26.9062,33.388995 1.13045,6.29774 2.74304,12.4776 3.78787,14.51613 2.21622,4.32396 2.3514,9.25958 0.33777,12.33276 -1.41163,2.15442 -1.52859,2.19102 -2.09645,0.65595 -0.36193,-0.9784 -1.66661,-1.84811 -3.27646,-2.18413 -4.61374,-0.96298 -6.30409,-2.51427 -6.30409,-5.78541 0,-2.37428 0.61886,-3.51756 3.26835,-6.03796 1.79759,-1.71001 3.04633,-3.46834 2.77499,-3.90739 -0.27136,-0.43906 -2.03383,-0.79829 -3.91661,-0.79829 -2.85074,0 -3.87881,0.47003 -6.14728,2.8105 -1.49823,1.54578 -2.86578,2.66877 -3.03899,2.49555 -0.17323,-0.17322 0.611,-1.78177 1.74273,-3.57455 2.03373,-3.22163 2.04915,-3.37045 1.32403,-12.7778 -0.8488,-11.01205 -2.00173,-14.29258 -6.56361,-18.67604 -4.43886,-4.26525 -8.93419,-5.51002 -15.53223,-4.30091 -23.36655,4.28201 -55.39921,40.93096 -70.242063,80.36479 -8.102736,21.52699 -9.059331,43.2851 -2.331327,53.02692 2.764345,4.00264 8.994454,7.08141 14.34454,7.08874 2.24154,0.003 7.42277,-0.76525 11.51385,-1.70738 8.20306,-1.88908 9.90039,-1.69489 9.90039,1.13268 0,5.03506 -6.85242,7.02073 -24.22812,7.02073 l -11.028669,0 -3.763904,-3.31312 0,0 z"
           id="path3739"
           inkscape:connector-curvature="0"
           transform="matrix(2.7387232,0,0,2.7387232,-850.0337,-83.430263)" />
        <path
           style="fill:#ffffff;fill-opacity:1;stroke:none"
           d="m 185.72759,156.24217 c -3.36159,-2.8286 -5.13846,-6.43262 -4.5708,-9.27094 0.65031,-3.25156 4.23944,-8.38328 6.62275,-9.46919 2.49503,-1.13682 5.97966,-1.20408 5.97966,-0.11542 0,0.44354 -0.4811,0.80645 -1.06911,0.80645 -1.95072,0 -4.70193,3.82644 -5.14929,7.16177 -0.63288,4.71845 1.14028,7.09869 5.8098,7.79893 4.70484,0.70554 5.15224,1.56489 1.8598,3.57225 -3.59502,2.19185 -6.47773,2.04476 -9.48281,-0.48385 l 0,0 z"
           id="path3741"
           inkscape:connector-curvature="0"
           transform="matrix(2.7387232,0,0,2.7387232,-850.0337,-83.430263)" />
        <path
           style="fill:#ffffff;fill-opacity:1;stroke:none"
           d="m 152.05297,198.60166 c -3.1981,-2.04837 -5.87442,-6.23402 -5.87442,-9.18737 0,-2.5202 5.35867,-8.47929 7.62495,-8.47929 1.20179,0 1.16531,0.25144 -0.30835,2.12489 -1.95932,2.49087 -2.14492,5.91056 -0.49406,9.10298 1.28337,2.48176 3.14501,3.24281 8.09682,3.31003 l 3.2258,0.0438 -2.79212,2.38658 c -3.27439,2.79881 -5.8975,2.99208 -9.47862,0.6984 l 0,0 z"
           id="path3743"
           inkscape:connector-curvature="0"
           transform="matrix(2.7387232,0,0,2.7387232,-850.0337,-83.430263)" />
        <path
           style="fill:#ffffff;fill-opacity:1;stroke:none"
           d="m 153.58682,202.13332 c -2.56831,-0.49032 -8.76691,-6.598 -9.44724,-9.30868 -1.45708,-5.80547 2.77095,-12.44901 9.13643,-14.35615 3.05014,-0.91385 3.88214,-0.85234 7.22801,0.53432 5.24081,2.172 7.44872,5.63022 7.44872,11.66684 0,4.07475 -0.29556,4.95298 -2.36254,7.01996 -2.52156,2.52156 -7.25706,5.09074 -9.04966,4.90976 -0.59829,-0.0604 -1.92746,-0.27012 -2.95372,-0.46605 l 0,0 z m 8.56189,-3.52615 c 1.86157,-1.36901 3.38468,-2.82063 3.38468,-3.2258 0,-0.40518 -1.95576,-0.73669 -4.34614,-0.73669 -5.46514,0 -7.69163,-1.62878 -8.27923,-6.05663 -0.36177,-2.72615 -0.10768,-3.51616 1.66371,-5.17265 2.72903,-2.55203 2.63752,-3.28685 -0.40931,-3.28685 -1.75922,0 -3.29838,0.79838 -5.1944,2.6944 -4.96809,4.96809 -4.68912,9.47157 0.91964,14.84571 4.49365,4.30567 7.38181,4.52675 12.26105,0.93851 z"
           id="path3745"
           inkscape:connector-curvature="0"
           transform="matrix(2.7387232,0,0,2.7387232,-850.0337,-83.430263)" />
        <path
           style="fill:#ffffff;fill-opacity:1;stroke:none"
           d="m 132.374,239.90085 c -4.13366,-4.13366 -4.24183,-7.20979 -0.389,-11.06262 3.57205,-3.57204 6.91031,-3.69763 10.22333,-0.38462 1.84674,1.84675 2.35732,3.08092 2.35732,5.69818 0,4.37509 -1.13896,6.34491 -4.4745,7.73858 -3.84814,1.60786 -4.21412,1.51351 -7.71715,-1.98952 z m 9.62677,-1.59395 c 0.20648,-1.38354 -0.15416,-1.72674 -1.81452,-1.72674 -1.13972,0 -2.86098,-0.78876 -3.82502,-1.7528 l -1.75281,-1.75281 2.73041,-2.27945 2.73041,-2.27945 -2.99373,0 c -5.60195,0 -8.11638,5.43556 -4.58889,9.92003 2.65709,3.37794 9.00362,3.29204 9.51415,-0.12878 z"
           id="path3747"
           inkscape:connector-curvature="0"
           transform="matrix(2.7387232,0,0,2.7387232,-850.0337,-83.430263)" />
        <path
           style="fill:#ffffff;fill-opacity:1;stroke:none"
           d=""
           id="path3749"
           inkscape:connector-curvature="0"
           transform="matrix(2.7387232,0,0,2.7387232,-850.0337,-83.430263)" />
        <path
           style="fill:#ffffff;fill-opacity:1;stroke:none"
           d="m 136.30832,239.98547 c -4.37614,-0.56448 -6.32168,-6.97879 -2.85355,-9.40796 2.63941,-1.84872 4.177,-1.57959 2.2105,0.38691 -0.90328,0.90327 -1.39244,2.08271 -1.08702,2.62097 1.38457,2.44011 3.12855,3.80123 4.87045,3.80123 1.04013,0 1.89114,0.35013 1.89114,0.77807 0,1.2019 -2.58299,2.13662 -5.03152,1.82078 l 0,0 z"
           id="path3751"
           inkscape:connector-curvature="0"
           transform="matrix(2.7387232,0,0,2.7387232,-850.0337,-83.430263)" />
        <path
           style="fill:#ffffff;fill-opacity:1;stroke:none"
           d=""
           id="path3753"
           inkscape:connector-curvature="0"
           transform="matrix(2.7387232,0,0,2.7387232,-850.0337,-83.430263)" />
        <path
           style="fill:#ffffff;fill-opacity:1;stroke:none"
           d="m 296.6392,151.60591 c -3.36521,-3.1738 -3.71817,-5.97983 -1.25947,-10.0125 2.69019,-4.41236 5.7836,-4.75106 3.61068,-0.39535 -2.41064,4.83225 1.38868,9.52659 7.52354,9.29588 l 3.7775,-0.14206 -2.26271,1.98511 c -3.42529,3.00506 -7.7204,2.72936 -11.38954,-0.73108 l 0,0 z"
           id="path3755"
           inkscape:connector-curvature="0"
           transform="matrix(2.7387232,0,0,2.7387232,-850.0337,-83.430263)" />
      </g>
    </g>
    <path
       style="fill:#ffffff;fill-opacity:1;stroke:none"
       d="m 40.857425,295.05941 c -9.229188,-2.00791 -17.842247,-7.48514 -23.158046,-14.7267 -3.144233,-4.28331 -5.607106,-12.11669 -4.456183,-14.17328 0.8292,-1.48169 0.06705,-5.38572 -1.051412,-5.38572 -0.443885,0 -0.427177,-0.59834 0.04115,-1.47341 1.349689,-2.52191 1.988909,-9.69176 0.973173,-10.91565 -0.694069,-0.83631 -0.631393,-2.47563 0.254576,-6.65858 4.755748,-22.45345 20.927254,-51.02245 46.243877,-81.69562 4.181355,-5.06606 7.961533,-9.99909 8.400397,-10.96229 0.607834,-1.33405 0.283908,-3.17432 -1.359671,-7.72447 -10.169808,-28.15453 -11.699914,-34.5919 -11.675003,-49.118364 0.0223,-13.003135 0.773882,-16.793426 4.42811,-22.331286 3.225892,-4.888732 7.951138,-7.955171 14.315715,-9.290156 10.839169,-2.273539 27.526257,4.502236 46.961227,19.068557 6.20967,4.654094 11.88325,8.475183 12.60796,8.491309 0.7247,0.01612 7.61986,-4.542834 15.32258,-10.131021 36.325,-26.353147 81.2922,-49.796533 112.40558,-58.601992 15.85021,-4.485798 18.24297,-4.790217 37.63888,-4.788593 19.58986,0.0016 22.00272,0.372275 30.66739,4.710752 7.03394,3.521954 13.52739,11.603727 15.54404,19.346188 1.66168,6.379591 1.63632,23.851855 -0.044,30.336519 -3.91986,15.12721 -16.48207,40.270067 -28.50808,57.057977 -2.84018,3.96479 -4.91372,7.70282 -4.92086,8.87096 -0.007,1.13051 -0.27306,1.6284 -0.60484,1.13151 -0.94258,-1.41162 -3.92038,-2.73365 -6.38625,-2.83524 -1.67987,-0.0692 -1.85106,-0.19454 -0.65786,-0.48165 6.8049,-1.63737 27.02523,-34.902866 33.71921,-55.473189 5.39329,-16.573348 6.07459,-31.803637 1.84382,-41.218057 -6.07758,-13.523964 -20.2822,-19.635554 -43.22432,-18.597429 -14.85272,0.672082 -22.47997,2.314003 -43.99627,9.471095 -25.77095,8.572336 -42.58717,16.834216 -74.15368,36.432007 -14.92411,9.265503 -35.16794,23.39506 -38.16648,26.639006 -2.67583,2.894824 -2.09537,5.579193 1.45454,6.726564 l 2.7994,0.904798 -2.51416,0.552202 c -1.38279,0.30371 -3.18375,1.292089 -4.00214,2.196393 l -1.48797,1.64419 -0.42575,-1.80349 c -0.23416,-0.991924 -1.18465,-2.307392 -2.1122,-2.923254 -1.53297,-1.017863 -2.07552,-0.82742 -5.96181,2.092685 -15.82094,11.887619 -50.181523,44.539679 -51.218635,48.671859 -0.385651,1.53655 0.340841,3.73036 2.801763,8.46057 1.82733,3.51235 4.020924,7.13586 4.874653,8.05223 1.467977,1.57569 1.48248,1.84371 0.267169,4.93759 l -1.285067,3.27146 -4.020566,-7.0294 c -5.174932,-9.04766 -6.908798,-11.46489 -8.223684,-11.46489 -0.957901,0 -6.030467,5.6854 -15.469772,17.33871 -5.280777,6.5194 -16.589196,23.46993 -22.327753,33.46774 -16.965352,29.55734 -21.838509,56.28686 -13.008757,71.35369 4.4724,7.63157 13.011959,13.13721 23.017423,14.83983 9.034502,1.53739 24.293586,0.92071 39.45007,-1.59434 13.779226,-2.28652 39.334956,-11.91078 62.700516,-23.61298 14.67593,-7.35016 17.64961,-9.29669 16.95755,-11.10019 -0.78178,-2.0373 -15.61216,-10.47581 -19.34882,-11.00951 -3.26028,-0.46566 -3.31844,-0.5182 -1.03505,-0.93494 1.73911,-0.3174 2.81581,-1.23518 3.82939,-3.26414 0.77552,-1.55242 1.4106,-2.38309 1.41129,-1.84593 0.002,1.60677 3.21134,4.16354 11.02077,8.78005 9.09861,5.3786 11.09004,5.84719 15.43314,3.6315 5.10756,-2.60568 20.97244,-12.77101 26.15317,-16.7575 4.23129,-3.2559 5.03468,-4.28921 4.74774,-6.10651 -0.0525,-0.33266 0.44885,-0.60483 1.11417,-0.60483 1.51516,0 1.51516,0.68482 0,4.31109 -1.49344,3.5743 -1.49442,3.75342 -0.0207,3.75342 1.43955,0 3.64974,-4.03285 3.64974,-6.65955 0,-1.33363 1.07261,-2.65697 3.5941,-4.43429 1.97675,-1.39334 4.69852,-4.05797 6.04838,-5.9214 1.34987,-1.86343 2.4543,-2.97069 2.4543,-2.4606 0,1.96732 2.11039,0.64707 11.97398,-7.49084 14.15806,-11.68102 24.01075,-20.57907 27.07581,-24.45237 l 2.59704,-3.28188 2.56368,1.62321 c 2.49167,1.57762 3.36235,3.07772 1.78633,3.07772 -0.42753,0 -8.33343,6.44153 -17.56864,14.31452 -9.2352,7.87298 -21.56733,18.125 -27.4047,22.78226 -5.84094,4.66009 -11.14955,9.55563 -11.8057,10.88709 -0.65576,1.33065 -1.80382,4.86662 -2.55126,7.85773 -2.322,9.29216 -8.22424,16.1957 -16.15783,18.89895 -2.94962,1.00503 -5.10479,1.14469 -9.92073,0.64287 -13.58448,-1.41551 -12.12402,-1.80727 -35.18476,9.43792 -24.27813,11.83881 -27.16818,13.08224 -41.6519,17.92053 -22.266872,7.43826 -49.374464,10.54799 -64.072451,7.35028 l 1.6e-5,0 z M 172.36304,255.97575 c 0.5451,-0.88198 -5.01536,-2.12385 -5.83584,-1.30338 -0.7615,0.7615 1.477,2.04193 3.59569,2.05674 0.97181,0.006 1.97988,-0.33222 2.24015,-0.75336 l 0,0 z m 19.86453,-0.95891 c 3.65367,-1.22375 6.06386,-3.4948 8.86797,-8.35603 2.29547,-3.97944 3.06891,-8.72918 1.5721,-9.65426 -0.42294,-0.26139 -3.63465,1.62244 -7.13712,4.18628 -3.50248,2.56384 -8.76407,6.11314 -11.69244,7.88733 -8.2342,4.98882 -8.18767,6.85484 0.17095,6.85484 3.01247,0 6.71081,-0.41317 8.21854,-0.91816 l 0,0 z M 73.597906,147.84821 c 0,-1.75442 -0.305218,-2.22934 -1.209677,-1.88226 -1.203399,0.46179 -1.677872,3.58688 -0.693968,4.57079 0.97237,0.97237 1.903645,-0.34288 1.903645,-2.68853 z m 17.537718,-21.14708 c 8.778798,-8.5383 20.581406,-19.45345 26.227996,-24.25587 6.25918,-5.323418 10.26654,-9.310168 10.26654,-10.21372 0,-3.139064 -19.2904,-17.152586 -31.854834,-23.140966 l -6.451613,-3.074925 -10.77647,0 -10.776471,0 -2.745749,3.17493 c -8.368006,9.675992 -7.964897,31.972961 1.047963,57.965501 4.551326,13.12575 5.522132,15.06925 7.527313,15.06925 0.953582,0 7.864574,-6.11837 17.535325,-15.5242 z M 134.08178,93.166187 c 0,-1.05006 -0.95869,-1.748414 -1.73854,-1.266437 -0.83405,0.515469 -0.11488,1.938479 0.97968,1.938479 0.41737,0 0.75886,-0.302419 0.75886,-0.672042 z"
       id="path3687"
       inkscape:connector-curvature="0"
       transform="translate(-164.51613,817.68481)" />
    <path
       style="fill:#ffffff;fill-opacity:1;stroke:none"
       d=""
       id="path3689"
       inkscape:connector-curvature="0"
       transform="translate(-164.51613,817.68481)" />
    <path
       style="fill:#ffffff;fill-opacity:1;stroke:none"
       d=""
       id="path3693"
       inkscape:connector-curvature="0"
       transform="translate(-164.51613,817.68481)" />
    <path
       style="fill:#ffffff;fill-opacity:1;stroke:none"
       d=""
       id="path3695"
       inkscape:connector-curvature="0"
       transform="translate(-164.51613,817.68481)" />
    <path
       style="fill:#ffffff;fill-opacity:1;stroke:none"
       d=""
       id="path3697"
       inkscape:connector-curvature="0"
       transform="translate(-164.51613,817.68481)" />
    <path
       style="fill:#ffffff;fill-opacity:1;stroke:none"
       d=""
       id="path3701"
       inkscape:connector-curvature="0"
       transform="translate(-164.51613,817.68481)" />
    <path
       style="fill:#ffffff;fill-opacity:1;stroke:none"
       d=""
       id="path3703"
       inkscape:connector-curvature="0"
       transform="translate(-164.51613,817.68481)" />
    <path
       style="fill:#ffffff;fill-opacity:1;stroke:none"
       d="m 319.82377,186.58016 c 0,-2.88306 0.14637,-4.0625 0.32526,-2.62096 0.17889,1.44153 0.17889,3.8004 0,5.24193 -0.17889,1.44153 -0.32526,0.2621 -0.32526,-2.62097 z"
       id="path3709"
       inkscape:connector-curvature="0"
       transform="translate(-164.51613,817.68481)" />
    <path
       style="fill:#ffffff;fill-opacity:1;stroke:none"
       d=""
       id="path3711"
       inkscape:connector-curvature="0"
       transform="translate(-164.51613,817.68481)" />
  </g>
</svg>
